<svg xmlns="http://www.w3.org/2000/svg" viewBox="0 0 750 268"><defs><style>.cls-1{isolation:isolate;}.cls-2{fill:#f7931e;}.cls-3,.cls-8{fill:#e6e5e5;}.cls-4{fill:#cccbca;}.cls-5{fill:#d9d8d7;}.cls-13,.cls-6{fill:#242d3c;}.cls-7{fill:#0071bc;}.cls-12,.cls-13,.cls-8{mix-blend-mode:multiply;}.cls-9{fill:#f2f2f2;}.cls-10{fill:#fff;}.cls-11{fill:#3e4959;}.cls-14{fill:#ccc;}.cls-15{fill:#fbb03b;}.cls-16{fill:#d87e25;}</style></defs><title>Artboard 2</title><g class="cls-1"><g id="Layer_1" data-name="Layer 1"><polygon class="cls-2" points="750 176 0 176 375 268 375 268 750 176"/><polygon class="cls-3" points="445.82 199.51 390.41 199.51 395.44 166.9 440.77 166.9 445.82 199.51"/><polygon class="cls-4" points="445.82 199.51 440.77 166.9 395.44 166.9 431.69 199.51 445.82 199.51"/><path class="cls-5" d="M460.65,203.66H375.58v-1.55a2.59,2.59,0,0,1,2.6-2.6H458a2.59,2.59,0,0,1,2.6,2.6Z"/><path class="cls-6" d="M517.85,39.53V162A4.87,4.87,0,0,1,513,166.9H323.23a4.87,4.87,0,0,1-4.86-4.86V39.53a4.87,4.87,0,0,1,4.84-4.86H513A4.88,4.88,0,0,1,517.85,39.53Z"/><rect class="cls-7" x="328.43" y="44.75" width="179.33" height="112.07"/><polygon class="cls-8" points="488.65 34.67 347.59 34.67 360.26 156.81 475.97 156.81 488.65 34.67"/><rect class="cls-9" x="360.27" y="10.27" width="115.7" height="146.54"/><rect class="cls-9" x="362.69" y="4.42" width="11.69" height="11.69" transform="translate(100.78 263.7) rotate(-45.02)"/><rect class="cls-9" x="379.22" y="4.42" width="11.69" height="11.69" transform="translate(105.58 275.35) rotate(-45.01)"/><rect class="cls-9" x="395.75" y="4.42" width="11.69" height="11.69" transform="translate(110.41 287.02) rotate(-45.01)"/><rect class="cls-9" x="412.27" y="4.42" width="11.69" height="11.69" transform="translate(115.23 298.68) rotate(-45)"/><rect class="cls-9" x="428.8" y="4.42" width="11.69" height="11.69" transform="translate(120.07 310.37) rotate(-45)"/><rect class="cls-9" x="445.33" y="4.42" width="11.69" height="11.69" transform="translate(124.96 322.11) rotate(-45.01)"/><rect class="cls-9" x="461.86" y="4.42" width="11.69" height="11.69" transform="translate(129.78 333.77) rotate(-45.01)"/><rect class="cls-2" x="376.8" y="34.67" width="82.64" height="42.55"/><polygon class="cls-10" points="412.36 49.3 423.88 55.95 412.36 62.6 412.36 49.3"/><rect class="cls-6" x="376.8" y="81.7" width="39.34" height="3.99"/><rect class="cls-6" x="376.8" y="90.14" width="39.34" height="3.99"/><rect class="cls-6" x="376.8" y="98.6" width="39.34" height="3.99"/><rect class="cls-6" x="376.8" y="107.05" width="39.34" height="3.99"/><rect class="cls-6" x="376.8" y="115.5" width="39.34" height="3.99"/><rect class="cls-6" x="376.8" y="123.95" width="39.34" height="3.99"/><rect class="cls-6" x="376.8" y="132.4" width="39.34" height="3.99"/><rect class="cls-6" x="376.8" y="140.85" width="39.34" height="3.99"/><rect class="cls-6" x="376.8" y="22.23" width="82.64" height="7.98"/><rect class="cls-6" x="436.56" y="81.7" width="22.88" height="3.99"/><rect class="cls-6" x="436.56" y="90.14" width="11.44" height="3.99"/><rect class="cls-6" x="436.56" y="98.6" width="22.88" height="3.99"/><rect class="cls-6" x="436.56" y="107.05" width="11.44" height="3.99"/><rect class="cls-6" x="436.56" y="115.5" width="22.88" height="3.99"/><rect class="cls-6" x="436.56" y="123.95" width="11.44" height="3.99"/><rect class="cls-6" x="436.56" y="132.4" width="22.88" height="3.99"/><rect class="cls-6" x="436.56" y="140.85" width="11.44" height="3.99"/><rect class="cls-2" x="420.13" y="81.7" width="12.44" height="12.44"/><rect class="cls-2" x="420.13" y="98.6" width="12.44" height="12.44"/><rect class="cls-2" x="420.13" y="115.5" width="12.44" height="12.44"/><rect class="cls-2" x="420.13" y="132.4" width="12.44" height="12.44"/><path class="cls-6" d="M532.19,129H498a5.92,5.92,0,0,0-5.9,5.9v72.8a5.92,5.92,0,0,0,5.9,5.9h34.24a5.91,5.91,0,0,0,5.89-5.9v-72.8A5.91,5.91,0,0,0,532.19,129Z"/><rect class="cls-7" x="495.39" y="141.82" width="39.36" height="59.02"/><path class="cls-11" d="M511.42,209.06a1.59,1.59,0,0,1-1.58-1.59V207a1.58,1.58,0,0,1,1.58-1.58h7.3A1.58,1.58,0,0,1,520.3,207v.48a1.58,1.58,0,0,1-1.58,1.59Z"/><circle class="cls-11" cx="515.08" cy="135.42" r="1.48"/><circle class="cls-6" cx="515.08" cy="135.42" r="0.59"/><rect class="cls-2" x="546.16" y="129.03" width="24.17" height="24.17"/><path class="cls-10" d="M559,146.4h-1.46a3.08,3.08,0,0,1-3.08-3.08h1.74a1.33,1.33,0,0,0,1.34,1.33H559a1.34,1.34,0,0,0,1.34-1.33,1.28,1.28,0,0,0-.39-.93,1.32,1.32,0,0,0-1-.4h-1.46a3.08,3.08,0,1,1,0-6.15H559a3.1,3.1,0,0,1,2.17.89,3.06,3.06,0,0,1,.91,2.19h-1.74a1.32,1.32,0,0,0-.39-.94,1.34,1.34,0,0,0-.95-.39h-1.46a1.34,1.34,0,0,0-.95.39,1.32,1.32,0,0,0-.39.94,1.3,1.3,0,0,0,.39.94,1.33,1.33,0,0,0,.95.4H559a3.06,3.06,0,0,1,2.18.9,3,3,0,0,1,.91,2.17,3.07,3.07,0,0,1-.9,2.18A3.1,3.1,0,0,1,559,146.4Z"/><rect class="cls-10" x="557.38" y="134.95" width="1.74" height="1.76"/><rect class="cls-10" x="557.38" y="145.52" width="1.74" height="1.76"/><rect class="cls-7" x="546.16" y="189.46" width="24.17" height="24.17"/><rect class="cls-10" x="551.49" y="200.67" width="13.52" height="1.74" transform="translate(21.1 453.99) rotate(-45.02)"/><path class="cls-10" d="M561.22,207.2a2.67,2.67,0,1,1,2.67-2.68A2.68,2.68,0,0,1,561.22,207.2Zm0-3.61a.93.93,0,1,0,.93.93A.93.93,0,0,0,561.22,203.59Z"/><path class="cls-10" d="M555.28,201.24a2.67,2.67,0,1,1,2.67-2.67A2.68,2.68,0,0,1,555.28,201.24Zm0-3.61a.93.93,0,1,0,0,1.86.93.93,0,1,0,0-1.86Z"/><circle class="cls-10" cx="515.07" cy="171.33" r="12.09"/><g class="cls-12"><rect class="cls-6" x="514.2" y="167.81" width="1.74" height="7.05"/><rect class="cls-6" x="511.54" y="170.46" width="7.05" height="1.74"/></g><path class="cls-13" d="M515.07,180.51a9.18,9.18,0,1,1,9.18-9.18A9.19,9.19,0,0,1,515.07,180.51Zm0-16.62a7.44,7.44,0,1,0,7.44,7.44A7.45,7.45,0,0,0,515.07,163.89Z"/><path class="cls-6" d="M525.38,162.52l-1.21-1.25,1.3-1.26,1.21,1.25ZM528,160l-1.21-1.25,1.3-1.26,1.21,1.25Zm2.6-2.52-1.21-1.25,1.3-1.26,1.21,1.25Zm2.6-2.52L532,153.71l1.3-1.26,1.21,1.25Zm2.6-2.52-1.21-1.25,1.3-1.26,1.21,1.25Zm2.59-2.52-1.21-1.25,1.3-1.26,1.21,1.25Zm2.6-2.52-1.21-1.25,1.3-1.26,1.21,1.25Zm2.6-2.52-1.21-1.25,1.3-1.26,1.21,1.25Z"/><path class="cls-6" d="M543.64,200.3l-1.3-1.26,1.21-1.25,1.3,1.26Zm-2.6-2.52-1.3-1.26,1.21-1.25,1.3,1.26Zm-2.59-2.52-1.3-1.26,1.21-1.25,1.3,1.26Zm-2.6-2.52-1.3-1.26,1.21-1.25,1.3,1.26Zm-2.59-2.52L532,189l1.21-1.25,1.3,1.26Zm-2.6-2.52-1.3-1.26,1.21-1.25,1.3,1.26Zm-2.6-2.52-1.3-1.26,1.21-1.25,1.3,1.26Zm-2.6-2.52-1.3-1.26,1.21-1.25,1.3,1.26Z"/><path class="cls-6" d="M543.57,172.2h-1.73v-1.74h1.73Zm-3.45,0h-1.73v-1.74h1.73Zm-3.45,0h-1.73v-1.74h1.73Zm-3.45,0h-1.73v-1.74h1.73Zm-3.45,0H528v-1.74h1.73Z"/><rect class="cls-14" x="546.16" y="159.25" width="24.17" height="24.17"/><path class="cls-6" d="M563.06,174.69h-7.63L553.27,168h11.94Zm-6.36-1.74h5.09l1-3.23h-7.16Z"/><polygon class="cls-6" points="553.64 169.11 552.67 166.07 550.63 166.07 550.63 164.33 553.95 164.33 555.3 168.58 553.64 169.11"/><path class="cls-6" d="M557.08,176.44a1,1,0,1,1-1-1A1,1,0,0,1,557.08,176.44Z"/><circle class="cls-6" cx="562.43" cy="176.44" r="1.02"/><path class="cls-6" d="M192.23,224.72V131.87a5.07,5.07,0,0,1,5-5H338.48a5,5,0,0,1,5,5v92.86Z"/><rect class="cls-7" x="200.63" y="135.23" width="134.48" height="81.09"/><path class="cls-11" d="M270,131a2.1,2.1,0,1,1-2.11-2.1A2.11,2.11,0,0,1,270,131Z"/><ellipse class="cls-10" cx="267.88" cy="131.03" rx="0.84" ry="0.84"/><rect class="cls-3" x="175.42" y="224.72" width="184.91" height="3.37"/><path class="cls-4" d="M360.33,228.1a5.9,5.9,0,0,1-5.89,5.88H181.3a5.88,5.88,0,0,1-5.88-5.88H360.33Z"/><rect class="cls-4" x="251.07" y="224.72" width="33.62" height="1.69"/><rect class="cls-8" x="232.9" y="126.82" width="80.81" height="28.86"/><rect class="cls-15" x="225.99" y="95.53" width="83.77" height="53.26"/><polygon class="cls-16" points="225.96 148.78 267.87 115.95 309.79 148.78 225.96 148.78"/><polygon class="cls-2" points="225.96 95.53 267.87 128.36 309.79 95.53 225.96 95.53"/><rect class="cls-6" x="241.25" y="169.42" width="3.94" height="12.86"/><rect class="cls-6" x="290.56" y="169.42" width="3.94" height="12.86"/><rect class="cls-6" x="265.9" y="162.56" width="3.94" height="12.86"/><rect class="cls-10" x="250.62" y="199.1" width="4.93" height="4.93"/><rect class="cls-10" x="265.41" y="199.1" width="4.93" height="4.93"/><rect class="cls-10" x="280.2" y="199.1" width="4.93" height="4.93"/><rect class="cls-3" x="85.77" y="104.52" width="67.41" height="82.9"/><rect class="cls-6" x="85.77" y="95.64" width="67.41" height="8.88"/><rect class="cls-7" x="85.77" y="120.64" width="67.41" height="20.22"/><rect class="cls-6" x="94.19" y="111.59" width="8.21" height="1.98"/><rect class="cls-6" x="108.31" y="111.59" width="8.21" height="1.98"/><rect class="cls-6" x="122.43" y="111.59" width="8.2" height="1.98"/><rect class="cls-6" x="136.53" y="111.59" width="8.22" height="1.98"/><rect class="cls-10" x="94.19" y="98.89" width="2.39" height="2.38"/><rect class="cls-10" x="98.95" y="98.89" width="2.38" height="2.38"/><rect class="cls-10" x="103.7" y="98.89" width="2.38" height="2.38"/><rect class="cls-4" x="112.42" y="166.19" width="14.1" height="14.1"/><rect class="cls-4" x="130.64" y="166.19" width="14.11" height="14.1"/><rect class="cls-4" x="94.19" y="147.98" width="14.1" height="14.1"/><rect class="cls-4" x="112.42" y="147.98" width="14.1" height="14.1"/><rect class="cls-6" x="106.32" y="166.2" width="1.98" height="1.98"/><path class="cls-6" d="M104.29,168.18h-2v-2h2Zm-4.05,0h-2v-2h2Z"/><rect class="cls-6" x="94.2" y="166.2" width="1.98" height="1.98"/><path class="cls-6" d="M96.18,176.29h-2v-2h2Zm0-4.06h-2v-2h2Z"/><rect class="cls-6" x="94.2" y="178.32" width="1.98" height="1.98"/><path class="cls-6" d="M104.29,180.3h-2v-2h2Zm-4.05,0h-2v-2h2Z"/><rect class="cls-6" x="106.32" y="178.32" width="1.98" height="1.98"/><path class="cls-6" d="M108.3,176.29h-2v-2h2Zm0-4.06h-2v-2h2Z"/><rect class="cls-6" x="142.76" y="147.98" width="1.98" height="1.98"/><path class="cls-6" d="M140.73,150h-2v-2h2Zm-4.05,0h-2v-2h2Z"/><rect class="cls-6" x="130.64" y="147.98" width="1.98" height="1.98"/><path class="cls-6" d="M132.62,158.07h-2v-2h2Zm0-4.06h-2v-2h2Z"/><rect class="cls-6" x="130.64" y="160.1" width="1.98" height="1.98"/><path class="cls-6" d="M140.73,162.08h-2v-2h2Zm-4.05,0h-2v-2h2Z"/><rect class="cls-6" x="142.76" y="160.1" width="1.98" height="1.98"/><path class="cls-6" d="M144.74,158.07h-2v-2h2Zm0-4.06h-2v-2h2Z"/><rect class="cls-6" x="147.35" y="154.04" width="11.63" height="1.98"/><rect class="cls-7" x="161.6" y="147.98" width="14.1" height="14.1"/><rect class="cls-6" x="79.95" y="172.25" width="11.64" height="1.98"/><rect class="cls-7" x="63.24" y="166.19" width="14.12" height="14.1"/><rect class="cls-2" x="60.79" y="131.89" width="30.59" height="20.07"/><polygon class="cls-10" points="73.65 139.11 78.52 141.92 73.65 144.74 73.65 139.11"/><path class="cls-6" d="M165,129.87H141.29v-14H165Zm-21.78-2h19.79v-10H143.27Z"/><rect class="cls-4" x="142.28" y="182.54" width="25.22" height="13.41"/><rect class="cls-6" x="148.53" y="190.28" width="12.71" height="1.98"/><rect class="cls-6" x="152.08" y="186.23" width="9.17" height="1.98"/><rect class="cls-6" x="61.42" y="115.9" width="12.87" height="1.98"/><rect class="cls-6" x="61.42" y="111.85" width="15.49" height="1.98"/><rect class="cls-6" x="57.65" y="107.79" width="12.55" height="1.98"/><path class="cls-14" d="M695.51,187.18a2.12,2.12,0,0,0-1.5-.63H684v4.25h10a2.12,2.12,0,0,0,2.12-2.12A2.1,2.1,0,0,0,695.51,187.18Z"/><path class="cls-14" d="M694.31,191.42a2.12,2.12,0,0,0-1.5-.62H682V195h10.77a2.12,2.12,0,0,0,1.5-3.62Z"/><path class="cls-14" d="M693.14,195.67a2.12,2.12,0,0,0-1.5-.62H680.1v4.25h11.53a2.12,2.12,0,0,0,1.5-3.62Z"/><path class="cls-14" d="M692,199.92a2.11,2.11,0,0,0-1.5-.62H678.17v4.25h12.28a2.12,2.12,0,0,0,1.5-3.62Z"/><path class="cls-14" d="M685.7,177.63a2.12,2.12,0,0,0-3.62,1.5v-.21a7.9,7.9,0,0,1-.62,3.08,7.81,7.81,0,0,1-1.74,2.58,6.88,6.88,0,0,1-2.21,1.46,6.77,6.77,0,0,1-2.6.51h-4.35v17H684.2V188.39l1-2.39a15.92,15.92,0,0,0,1.16-6v-.9A2.1,2.1,0,0,0,685.7,177.63Z"/><rect class="cls-6" x="604.68" y="192.66" width="74.45" height="51.34" rx="4.71" ry="4.71"/><path class="cls-11" d="M611.25,218.34a1.86,1.86,0,0,1-3.73,0,1.86,1.86,0,1,1,3.73,0Z"/><circle class="cls-10" cx="609.39" cy="218.33" r="0.65"/><rect class="cls-10" x="614.09" y="196.93" width="55.63" height="42.79"/><rect class="cls-7" x="617.07" y="199.91" width="49.68" height="36.84"/><path class="cls-11" d="M674.43,212.34a1.5,1.5,0,0,0-1.5,1.5v9a1.51,1.51,0,0,0,1.5,1.5h0a1.51,1.51,0,0,0,1.5-1.5v-9a1.5,1.5,0,0,0-1.5-1.5Z"/><rect class="cls-10" x="625.88" y="218.8" width="3.2" height="3.21"/><rect class="cls-10" x="630.69" y="218.8" width="3.21" height="3.21"/><rect class="cls-10" x="635.5" y="218.8" width="3.21" height="3.21"/><rect class="cls-10" x="640.3" y="218.8" width="3.21" height="3.21"/><rect class="cls-10" x="645.11" y="218.8" width="3.21" height="3.21"/><rect class="cls-10" x="649.93" y="218.8" width="3.2" height="3.21"/><rect class="cls-10" x="654.73" y="218.8" width="3.2" height="3.21"/><rect class="cls-10" x="623.47" y="223.61" width="3.21" height="3.21"/><rect class="cls-10" x="628.28" y="223.61" width="3.21" height="3.21"/><rect class="cls-10" x="633.09" y="223.61" width="3.21" height="3.21"/><rect class="cls-10" x="637.9" y="223.61" width="3.21" height="3.21"/><rect class="cls-10" x="642.71" y="223.61" width="3.2" height="3.21"/><rect class="cls-10" x="647.52" y="223.61" width="3.2" height="3.21"/><rect class="cls-10" x="652.32" y="223.61" width="3.2" height="3.21"/><rect class="cls-10" x="657.13" y="223.61" width="3.21" height="3.21"/><rect class="cls-10" x="625.88" y="228.41" width="3.2" height="3.21"/><rect class="cls-10" x="630.69" y="228.41" width="22.44" height="3.21"/><rect class="cls-10" x="654.73" y="228.41" width="3.2" height="3.21"/><rect class="cls-7" x="674.43" y="230.43" width="19.03" height="23.84"/><polygon class="cls-10" points="683.25 247.93 681.23 247.93 681.23 235.76 688.03 235.76 688.03 237.78 683.25 237.78 683.25 247.93"/><rect class="cls-10" x="679.85" y="241.34" width="5.79" height="2.02"/><path class="cls-6" d="M595.2,241.54a5.26,5.26,0,0,1-5.26-5.26v-10h2.54v10a2.72,2.72,0,0,0,5.45,0h2.54a5.26,5.26,0,0,1-5.26,5.26Z"/><rect class="cls-6" x="588.21" y="230.02" width="5.99" height="2.54"/><rect class="cls-14" x="581.84" y="181.03" width="44.18" height="26.08"/><polygon class="cls-14" points="588.47 213.9 588.47 207.11 595.26 207.11 588.47 213.9"/><g class="cls-12"><rect class="cls-6" x="588.47" y="197.19" width="15.36" height="2.08"/><rect class="cls-6" x="588.47" y="193.03" width="30.92" height="2.08"/><rect class="cls-6" x="588.47" y="188.86" width="30.92" height="2.08"/></g><g class="cls-12"><rect class="cls-6" x="629.88" y="176.62" width="1.78" height="5.96"/><rect class="cls-6" x="627.79" y="178.71" width="5.96" height="1.78"/><path class="cls-6" d="M630.77,186.14a6.54,6.54,0,1,1,6.54-6.54A6.55,6.55,0,0,1,630.77,186.14Zm0-11.3a4.76,4.76,0,1,0,4.76,4.76A4.76,4.76,0,0,0,630.77,174.84Z"/></g></g></g></svg>