<?xml version="1.0" encoding="UTF-8"?>
<!-- Generator: Adobe Illustrator 16.0.0, SVG Export Plug-In . SVG Version: 6.00 Build 0)  -->
<!DOCTYPE svg PUBLIC "-//W3C//DTD SVG 1.1//EN" "http://www.w3.org/Graphics/SVG/1.1/DTD/svg11.dtd">
<svg version="1.1" id="Layer_1" xmlns="http://www.w3.org/2000/svg" xmlns:xlink="http://www.w3.org/1999/xlink" x="0px" y="0px" width="560px" height="545px" viewBox="0 0 560 545" enable-background="new 0 0 560 545" xml:space="preserve">
<g display="none">
	<defs>
		<rect id="SVGID_1_" x="-350.521" y="-41.5" width="948.021" height="474.011"/>
	</defs>
	<clipPath id="SVGID_2_" display="inline">
		<use xlink:href="#SVGID_1_" overflow="visible"/>
	</clipPath>
	<g display="inline" clip-path="url(#SVGID_2_)">
		<g>
			<g>
				<polygon fill="#FFFFFF" points="131.354,157.714 89.171,221.586 188.4,287.12 237.138,213.325 147.833,154.344     "/>
				<g>
					
						<rect x="104.892" y="194.687" transform="matrix(0.5511 -0.8344 0.8344 0.5511 -123.2359 199.337)" fill="#E7E7E8" width="37.51" height="39.035"/>
					<g>
						
							<rect x="118.73" y="211.565" transform="matrix(0.5511 -0.8344 0.8344 0.5511 -107.5377 226.2865)" fill="#E7E7E8" width="75.629" height="3.05"/>
						
							<rect x="124.214" y="215.187" transform="matrix(0.5511 -0.8344 0.8344 0.5511 -108.0984 232.4866)" fill="#E7E7E8" width="75.629" height="3.049"/>
						
							<rect x="129.698" y="218.809" transform="matrix(0.5511 -0.8344 0.8344 0.5511 -108.6587 238.6909)" fill="#E7E7E8" width="75.629" height="3.05"/>
						
							<rect x="135.182" y="222.431" transform="matrix(0.5511 -0.8344 0.8344 0.5511 -109.2191 244.8933)" fill="#E7E7E8" width="75.629" height="3.05"/>
						
							<rect x="140.667" y="226.053" transform="matrix(0.5511 -0.8344 0.8344 0.5511 -109.7798 251.0913)" fill="#E7E7E8" width="75.63" height="3.05"/>
						
							<rect x="146.151" y="229.676" transform="matrix(0.5511 -0.8344 0.8344 0.5511 -110.3406 257.2926)" fill="#E7E7E8" width="75.629" height="3.05"/>
						
							<rect x="151.636" y="233.297" transform="matrix(0.5511 -0.8344 0.8344 0.5511 -110.9002 263.4995)" fill="#E7E7E8" width="75.629" height="3.05"/>
						
							<rect x="157.121" y="236.92" transform="matrix(0.5511 -0.8344 0.8344 0.5511 -111.4609 269.6997)" fill="#E7E7E8" width="75.628" height="3.049"/>
						
							<rect x="162.605" y="240.542" transform="matrix(0.5511 -0.8344 0.8344 0.5511 -112.0211 275.9043)" fill="#E7E7E8" width="75.629" height="3.05"/>
						
							<rect x="168.089" y="244.164" transform="matrix(0.5511 -0.8344 0.8344 0.5511 -112.5819 282.1055)" fill="#E7E7E8" width="75.628" height="3.049"/>
					</g>
					<g>
						<path fill="#E7E7E8" d="M152.643,187.676c-1.43,1.93-3.139,3.239-3.139,3.239l-3.85-2.543l1.322-2.001l1.847,0.751        c0,0,0.879-0.481,1.642-1.634c0.862-1.305,1.108-2.767,0.063-3.457c-2.327-1.538-5.615,5.852-10.575,2.577        c-2.262-1.495-2.649-3.937-1.625-6.385l-2.567-1.696l1.537-2.328l2.48,1.638c1.389-1.77,3.025-2.876,3.025-2.876l3.511,2.444        l-1.236,1.871l-1.883-0.65c0,0-0.931,0.698-1.476,1.525c-0.92,1.393-0.807,2.499-0.023,3.016        c2.305,1.523,5.73-5.745,10.451-2.627c2.437,1.609,2.903,4.167,1.902,6.725l3.068,2.025l-1.538,2.328L152.643,187.676z"/>
					</g>
				</g>
				<polygon fill="#F2F1F1" points="131.354,157.714 147.833,154.344 141.278,164.269     "/>
			</g>
			<g>
				<polygon fill="#FFFFFF" points="99.267,183.597 77.213,256.896 191.087,291.158 216.568,206.471 114.083,175.635     "/>
				<g>
					
						<rect x="89.361" y="220.404" transform="matrix(0.2881 -0.9576 0.9576 0.2881 -152.7817 274.3223)" fill="#E7E7E8" width="37.509" height="39.034"/>
					<g>
						
							<rect x="101.49" y="227.876" transform="matrix(0.2881 -0.9576 0.9576 0.2881 -120.5048 296.7034)" fill="#E7E7E8" width="75.63" height="3.05"/>
						
							<rect x="107.785" y="229.77" transform="matrix(0.2881 -0.9576 0.9576 0.2881 -117.8382 304.0767)" fill="#E7E7E8" width="75.629" height="3.05"/>
						
							<rect x="114.078" y="231.663" transform="matrix(0.2881 -0.9576 0.9576 0.2881 -115.1705 311.4543)" fill="#E7E7E8" width="75.629" height="3.05"/>
						
							<rect x="120.372" y="233.558" transform="matrix(0.2881 -0.9576 0.9576 0.2881 -112.5044 318.8248)" fill="#E7E7E8" width="75.629" height="3.049"/>
						
							<rect x="126.666" y="235.45" transform="matrix(0.2881 -0.9576 0.9576 0.2881 -109.8363 326.2039)" fill="#E7E7E8" width="75.629" height="3.05"/>
						
							<rect x="132.96" y="237.345" transform="matrix(0.2881 -0.9576 0.9576 0.2881 -107.1702 333.5757)" fill="#E7E7E8" width="75.629" height="3.049"/>
						
							<rect x="139.253" y="239.238" transform="matrix(0.2881 -0.9576 0.9576 0.2881 -104.5029 340.9535)" fill="#E7E7E8" width="75.628" height="3.05"/>
						
							<rect x="145.547" y="241.132" transform="matrix(0.2881 -0.9576 0.9576 0.2881 -101.8361 348.3251)" fill="#E7E7E8" width="75.629" height="3.049"/>
						
							<rect x="151.841" y="243.026" transform="matrix(0.2881 -0.9576 0.9576 0.2881 -99.1686 355.702)" fill="#E7E7E8" width="75.63" height="3.049"/>
						
							<rect x="158.135" y="244.919" transform="matrix(0.2881 -0.9576 0.9576 0.2881 -96.5015 363.0782)" fill="#E7E7E8" width="75.628" height="3.05"/>
					</g>
					<g>
						<path fill="#E7E7E8" d="M128.268,206.18c-0.816,2.26-2.076,4.004-2.076,4.004l-4.419-1.33l0.691-2.297l1.985,0.188        c0,0,0.705-0.713,1.103-2.036c0.451-1.498,0.268-2.969-0.931-3.33c-2.672-0.804-3.697,7.219-9.389,5.506        c-2.596-0.781-3.668-3.01-3.392-5.648l-2.946-0.887l0.804-2.671l2.847,0.856c0.82-2.095,2.07-3.625,2.07-3.625l4.064,1.332        l-0.646,2.146l-1.99-0.081c0,0-0.69,0.936-0.976,1.885c-0.48,1.598-0.054,2.625,0.844,2.895        c2.646,0.796,3.839-7.148,9.257-5.519c2.796,0.841,3.978,3.157,3.754,5.894l3.52,1.06l-0.804,2.672L128.268,206.18z"/>
					</g>
				</g>
				<polygon fill="#F2F1F1" points="99.267,183.597 114.083,175.635 110.656,187.024     "/>
			</g>
		</g>
		<g>
			<g>
				<g>
					<g>
						<path fill="#414654" d="M144.283,338.392c0.668,1.579-0.075,3.426-1.653,4.098L62.283,376.7        c-1.578,0.675-3.425-0.068-4.093-1.646L11.249,264.816c-0.673-1.581,0.066-3.424,1.646-4.097l80.339-34.213        c1.586-0.67,3.437,0.065,4.105,1.651L144.283,338.392z"/>
						<path fill="#BCBEC0" d="M65.833,369.092c-2.267,0.964-4.916-0.1-5.882-2.368l-41.242-96.851        c-0.967-2.271,0.101-4.921,2.372-5.889l68.848-29.317c2.267-0.969,4.918,0.104,5.884,2.37l41.242,96.851        c0.971,2.274-0.097,4.919-2.366,5.886L65.833,369.092z"/>
						<path fill="#D1D3D4" d="M65.504,368.316c-2.27,0.965-4.916-0.102-5.886-2.375L18.38,269.096        c-0.971-2.273,0.101-4.923,2.369-5.889l68.847-29.314c2.271-0.967,4.92,0.101,5.887,2.367l41.241,96.852        c0.969,2.271-0.099,4.92-2.368,5.887L65.504,368.316z"/>
						<path fill="#F1F2F2" d="M18.043,268.318l0.73,1.716c-0.973-2.271,0.099-4.914,2.369-5.885l68.851-29.316        c2.267-0.969,4.918,0.099,5.885,2.368l-0.734-1.712c-0.962-2.27-3.613-3.339-5.88-2.372L20.413,262.44        C18.146,263.402,17.079,266.056,18.043,268.318z"/>
						<path fill="#FFFFFF" d="M65.176,367.538c-2.268,0.97-4.918-0.098-5.885-2.367l-41.24-96.855c-0.97-2.269,0.1-4.915,2.37-5.879        l68.846-29.321c2.271-0.967,4.922,0.101,5.884,2.37l41.244,96.853c0.966,2.27-0.101,4.915-2.368,5.885L65.176,367.538z"/>
						<g>
							<g>
								<path fill="#808285" d="M86.547,237.399c-0.732,0.313-1.076,1.154-0.767,1.886c0.313,0.729,1.16,1.074,1.896,0.762          c0.736-0.309,1.059-1.155,0.752-1.885C88.117,237.426,87.282,237.088,86.547,237.399z"/>
								
									<linearGradient id="SVGID_3_" gradientUnits="userSpaceOnUse" x1="6938.6982" y1="1900.8359" x2="6928.9858" y2="1900.8359" gradientTransform="matrix(-0.3918 -0.92 -0.92 0.3918 4550.7441 5868.8506)">
									<stop offset="0" style="stop-color:#DCDDDE"/>
									<stop offset="1" style="stop-color:#A7A9AC"/>
								</linearGradient>
								<path fill="url(#SVGID_3_)" d="M83.394,229.996c-0.573,0.242-0.837,0.897-0.597,1.463l3.135,7.363          c0.244,0.564,0.897,0.83,1.472,0.588l0,0c0.566-0.248,0.834-0.901,0.591-1.468l-3.133-7.361          C84.617,230.013,83.961,229.75,83.394,229.996L83.394,229.996z"/>
							</g>
							<g>
								<path fill="#808285" d="M78.902,240.655c-0.734,0.313-1.076,1.155-0.764,1.89c0.315,0.729,1.155,1.072,1.89,0.761          c0.734-0.313,1.072-1.163,0.763-1.893C80.478,240.677,79.636,240.342,78.902,240.655z"/>
								
									<linearGradient id="SVGID_4_" gradientUnits="userSpaceOnUse" x1="6938.6982" y1="1909.1455" x2="6928.9907" y2="1909.1455" gradientTransform="matrix(-0.3918 -0.92 -0.92 0.3918 4550.7441 5868.8506)">
									<stop offset="0" style="stop-color:#DCDDDE"/>
									<stop offset="1" style="stop-color:#A7A9AC"/>
								</linearGradient>
								<path fill="url(#SVGID_4_)" d="M75.748,233.251c-0.568,0.24-0.836,0.897-0.59,1.464l3.135,7.361          c0.239,0.568,0.896,0.832,1.463,0.585l0,0c0.571-0.241,0.832-0.893,0.59-1.463l-3.137-7.359          C76.974,233.269,76.316,233.008,75.748,233.251L75.748,233.251z"/>
							</g>
							<g>
								<path fill="#808285" d="M71.257,243.911c-0.734,0.312-1.074,1.153-0.762,1.888c0.313,0.726,1.16,1.069,1.894,0.761          c0.732-0.312,1.065-1.158,0.756-1.886C72.835,243.941,71.991,243.598,71.257,243.911z"/>
								
									<linearGradient id="SVGID_5_" gradientUnits="userSpaceOnUse" x1="6938.6982" y1="1917.4541" x2="6928.9878" y2="1917.4541" gradientTransform="matrix(-0.3918 -0.92 -0.92 0.3918 4550.7441 5868.8506)">
									<stop offset="0" style="stop-color:#DCDDDE"/>
									<stop offset="1" style="stop-color:#A7A9AC"/>
								</linearGradient>
								<path fill="url(#SVGID_5_)" d="M68.105,236.507c-0.568,0.241-0.838,0.896-0.595,1.464l3.134,7.363          c0.243,0.563,0.902,0.823,1.474,0.584l0,0c0.564-0.242,0.828-0.898,0.589-1.462l-3.138-7.363          C69.329,236.52,68.675,236.263,68.105,236.507L68.105,236.507z"/>
							</g>
							<g>
								<path fill="#808285" d="M63.614,247.165c-0.736,0.313-1.08,1.159-0.765,1.888c0.312,0.73,1.156,1.076,1.891,0.764          c0.734-0.314,1.073-1.164,0.76-1.894C65.19,247.191,64.344,246.851,63.614,247.165z"/>
								
									<linearGradient id="SVGID_6_" gradientUnits="userSpaceOnUse" x1="6938.7021" y1="1925.7598" x2="6928.9873" y2="1925.7598" gradientTransform="matrix(-0.3918 -0.92 -0.92 0.3918 4550.7441 5868.8506)">
									<stop offset="0" style="stop-color:#DCDDDE"/>
									<stop offset="1" style="stop-color:#A7A9AC"/>
								</linearGradient>
								<path fill="url(#SVGID_6_)" d="M60.458,239.759c-0.567,0.246-0.834,0.899-0.589,1.463l3.136,7.363          c0.239,0.566,0.897,0.832,1.463,0.591l0,0c0.57-0.242,0.833-0.901,0.592-1.469l-3.133-7.36          C61.682,239.783,61.03,239.517,60.458,239.759L60.458,239.759z"/>
							</g>
							<g>
								<path fill="#808285" d="M55.964,250.42c-0.723,0.31-1.063,1.15-0.758,1.887c0.314,0.729,1.165,1.073,1.893,0.764          c0.738-0.313,1.068-1.162,0.758-1.89C57.54,250.446,56.701,250.104,55.964,250.42z"/>
								
									<linearGradient id="SVGID_7_" gradientUnits="userSpaceOnUse" x1="6938.6982" y1="1934.0693" x2="6928.9897" y2="1934.0693" gradientTransform="matrix(-0.3918 -0.92 -0.92 0.3918 4550.7441 5868.8506)">
									<stop offset="0" style="stop-color:#DCDDDE"/>
									<stop offset="1" style="stop-color:#A7A9AC"/>
								</linearGradient>
								<path fill="url(#SVGID_7_)" d="M52.816,243.018c-0.568,0.238-0.835,0.896-0.597,1.46l3.138,7.363          c0.242,0.568,0.897,0.83,1.463,0.588l0,0c0.573-0.245,0.841-0.899,0.602-1.466l-3.137-7.363          C54.043,243.034,53.388,242.772,52.816,243.018L52.816,243.018z"/>
							</g>
							<g>
								<path fill="#808285" d="M48.328,253.674c-0.734,0.316-1.076,1.154-0.765,1.888c0.314,0.732,1.16,1.076,1.893,0.761          c0.73-0.312,1.065-1.156,0.756-1.888C49.9,253.7,49.063,253.362,48.328,253.674z"/>
								
									<linearGradient id="SVGID_8_" gradientUnits="userSpaceOnUse" x1="6938.6973" y1="1942.3799" x2="6928.9888" y2="1942.3799" gradientTransform="matrix(-0.3918 -0.92 -0.92 0.3918 4550.7441 5868.8506)">
									<stop offset="0" style="stop-color:#DCDDDE"/>
									<stop offset="1" style="stop-color:#A7A9AC"/>
								</linearGradient>
								<path fill="url(#SVGID_8_)" d="M45.176,246.272c-0.577,0.241-0.84,0.895-0.599,1.464l3.133,7.36          c0.244,0.563,0.898,0.827,1.475,0.586l0,0c0.568-0.241,0.833-0.899,0.588-1.464l-3.133-7.365          C46.396,246.292,45.742,246.028,45.176,246.272L45.176,246.272z"/>
							</g>
							<g>
								<path fill="#808285" d="M40.685,256.93c-0.734,0.313-1.077,1.153-0.763,1.888c0.31,0.73,1.156,1.071,1.89,0.763          c0.737-0.316,1.068-1.158,0.763-1.893C42.257,256.958,41.419,256.615,40.685,256.93z"/>
								
									<linearGradient id="SVGID_9_" gradientUnits="userSpaceOnUse" x1="6938.7002" y1="1950.6875" x2="6928.9917" y2="1950.6875" gradientTransform="matrix(-0.3918 -0.92 -0.92 0.3918 4550.7441 5868.8506)">
									<stop offset="0" style="stop-color:#DCDDDE"/>
									<stop offset="1" style="stop-color:#A7A9AC"/>
								</linearGradient>
								<path fill="url(#SVGID_9_)" d="M37.531,249.525c-0.569,0.242-0.838,0.897-0.599,1.464l3.132,7.363          c0.244,0.568,0.906,0.827,1.473,0.583l0,0c0.572-0.238,0.834-0.895,0.597-1.463l-3.137-7.36          C38.757,249.543,38.099,249.28,37.531,249.525L37.531,249.525z"/>
							</g>
							<g>
								<path fill="#808285" d="M33.036,260.186c-0.737,0.31-1.07,1.156-0.758,1.886c0.309,0.732,1.156,1.076,1.888,0.76          c0.734-0.307,1.069-1.156,0.76-1.888C34.614,260.212,33.768,259.874,33.036,260.186z"/>
								
									<linearGradient id="SVGID_10_" gradientUnits="userSpaceOnUse" x1="6938.7021" y1="1958.9951" x2="6928.9854" y2="1958.9951" gradientTransform="matrix(-0.3918 -0.92 -0.92 0.3918 4550.7441 5868.8506)">
									<stop offset="0" style="stop-color:#DCDDDE"/>
									<stop offset="1" style="stop-color:#A7A9AC"/>
								</linearGradient>
								<path fill="url(#SVGID_10_)" d="M29.881,252.781c-0.566,0.244-0.833,0.897-0.592,1.464l3.138,7.358          c0.238,0.569,0.894,0.832,1.466,0.595l0,0c0.568-0.25,0.828-0.901,0.588-1.47l-3.131-7.363          C31.106,252.799,30.454,252.54,29.881,252.781L29.881,252.781z"/>
							</g>
							<g>
								<path fill="#808285" d="M25.394,263.437c-0.733,0.315-1.069,1.155-0.757,1.887c0.309,0.733,1.155,1.081,1.886,0.766          c0.738-0.313,1.067-1.159,0.758-1.89C26.969,263.463,26.126,263.125,25.394,263.437z"/>
								
									<linearGradient id="SVGID_11_" gradientUnits="userSpaceOnUse" x1="6938.7012" y1="1967.3018" x2="6928.9878" y2="1967.3018" gradientTransform="matrix(-0.3918 -0.92 -0.92 0.3918 4550.7441 5868.8506)">
									<stop offset="0" style="stop-color:#DCDDDE"/>
									<stop offset="1" style="stop-color:#A7A9AC"/>
								</linearGradient>
								<path fill="url(#SVGID_11_)" d="M22.241,256.035c-0.568,0.244-0.838,0.897-0.595,1.464l3.135,7.363          c0.24,0.567,0.901,0.831,1.468,0.588l0,0c0.573-0.245,0.836-0.898,0.596-1.47l-3.132-7.361          C23.471,256.055,22.811,255.793,22.241,256.035L22.241,256.035z"/>
							</g>
						</g>
					</g>
				</g>
				<g>
					<path fill="#E8E8E8" d="M95.864,250.74L28.206,279.77c-0.349,0.149-0.758-0.014-0.908-0.363l-0.321-0.747       c-0.15-0.35,0.014-0.759,0.363-0.908l67.658-29.03c0.35-0.149,0.758,0.014,0.908,0.363l0.321,0.748       C96.377,250.182,96.214,250.59,95.864,250.74z"/>
					<path fill="#E8E8E8" d="M98.67,258.313l-66.91,28.709c-0.555,0.238-1.204-0.021-1.442-0.576l0,0       c-0.238-0.556,0.021-1.205,0.576-1.443l66.91-28.709c0.555-0.237,1.205,0.021,1.442,0.577l0,0       C99.485,257.425,99.226,258.074,98.67,258.313z"/>
					<path fill="#E8E8E8" d="M101.851,265.725l-66.91,28.708c-0.556,0.238-1.205-0.021-1.442-0.576l0,0       c-0.239-0.556,0.021-1.204,0.576-1.442l66.91-28.709c0.555-0.238,1.204,0.021,1.442,0.576l0,0       C102.665,264.837,102.406,265.486,101.851,265.725z"/>
					<path fill="#E8E8E8" d="M105.031,273.137l-66.91,28.708c-0.556,0.238-1.205-0.021-1.442-0.575l0,0       c-0.239-0.556,0.021-1.206,0.576-1.443l66.91-28.708c0.555-0.238,1.204,0.021,1.442,0.576l0,0       C105.845,272.249,105.586,272.898,105.031,273.137z"/>
					<path fill="#E8E8E8" d="M108.211,280.548l-66.91,28.709c-0.556,0.238-1.205-0.021-1.443-0.576l0,0       c-0.238-0.556,0.021-1.204,0.577-1.442l66.91-28.709c0.555-0.238,1.205,0.021,1.443,0.576l0,0       C109.025,279.661,108.766,280.311,108.211,280.548z"/>
					<path fill="#E8E8E8" d="M111.392,287.961l-66.91,28.708c-0.556,0.238-1.204-0.021-1.443-0.576l0,0       c-0.238-0.556,0.021-1.205,0.577-1.443l66.91-28.708c0.555-0.238,1.204,0.022,1.442,0.576l0,0       C112.206,287.072,111.946,287.723,111.392,287.961z"/>
					<path fill="#E8E8E8" d="M114.571,295.372l-66.91,28.709c-0.555,0.238-1.205-0.021-1.443-0.576l0,0       c-0.238-0.556,0.021-1.205,0.577-1.442l66.91-28.709c0.556-0.238,1.204,0.021,1.443,0.576l0,0       C115.386,294.485,115.127,295.134,114.571,295.372z"/>
					<path fill="#E8E8E8" d="M117.751,302.784l-66.91,28.708c-0.555,0.238-1.204-0.021-1.443-0.576l0,0       c-0.238-0.555,0.021-1.203,0.577-1.442l66.91-28.709c0.556-0.237,1.204,0.022,1.443,0.576l0,0       C118.566,301.896,118.307,302.547,117.751,302.784z"/>
					<path fill="#E8E8E8" d="M120.932,310.196l-66.91,28.709c-0.555,0.237-1.204-0.021-1.442-0.576l0,0       c-0.238-0.556,0.021-1.204,0.576-1.442l66.91-28.709c0.556-0.238,1.205,0.021,1.442,0.577l0,0       C121.747,309.309,121.487,309.958,120.932,310.196z"/>
					<path fill="#E8E8E8" d="M124.112,317.608l-66.91,28.708c-0.555,0.238-1.205-0.021-1.443-0.576l0,0       c-0.238-0.556,0.021-1.203,0.576-1.441l66.91-28.709c0.556-0.239,1.205,0.021,1.442,0.576l0,0       C124.927,316.721,124.667,317.37,124.112,317.608z"/>
					<path fill="#E8E8E8" d="M127.667,324.86L60.008,353.89c-0.35,0.15-0.758-0.014-0.908-0.363l-0.321-0.747       c-0.15-0.35,0.013-0.759,0.363-0.908l67.658-29.03c0.349-0.149,0.758,0.014,0.908,0.363l0.321,0.747       C128.179,324.301,128.016,324.711,127.667,324.86z"/>
				</g>
			</g>
			<g>
				<g>
					<g>
						<polygon fill="#FEC873" points="108.137,337.2 106.194,336.302 147.964,245.633 149.901,246.522       "/>
						<polygon fill="#EFB065" points="110.071,338.089 108.137,337.2 149.901,246.522 151.844,247.421       "/>
						<polygon fill="#E39B47" points="112.012,338.984 110.071,338.089 151.844,247.421 153.788,248.31       "/>
					</g>
					<polygon fill="#EFD5A9" points="149.901,246.522 156.859,233.896 147.964,245.633      "/>
					<polygon fill="#D6B59D" points="156.859,233.896 151.844,247.421 149.901,246.522      "/>
					<polygon fill="#C3A386" points="156.859,233.896 153.788,248.31 151.844,247.421      "/>
					<path fill="#5D5F63" d="M155.56,237.399c-0.072-0.015-0.132-0.051-0.194-0.081c-0.111-0.048-0.206-0.099-0.302-0.168       c-0.147-0.099-0.296-0.206-0.417-0.319l2.213-2.929l-0.772,3.626C155.904,237.51,155.731,237.462,155.56,237.399z"/>
				</g>
			</g>
		</g>
		<g>
			<g>
				
					<rect x="153.66" y="303.933" transform="matrix(0.9932 -0.1161 0.1161 0.9932 -38.1599 38.1136)" fill="#F9F9F9" width="309.121" height="85.644"/>
				<g>
					
						<rect x="223.985" y="370.669" transform="matrix(0.9932 -0.1161 0.1161 0.9932 -42.1883 33.3008)" fill="#CCCBCB" width="81.655" height="16.384"/>
					
						<rect x="202.587" y="376.86" transform="matrix(0.9932 -0.1161 0.1161 0.9932 -43.2553 27.1855)" fill="#CCCBCB" width="18.487" height="16.384"/>
					
						<rect x="185.019" y="379.139" transform="matrix(0.9932 -0.1161 0.1161 0.9932 -43.6632 24.9453)" fill="#CCCBCB" width="14.621" height="16.383"/>
					
						<rect x="165.491" y="381.301" transform="matrix(0.9932 -0.1161 0.1161 0.9932 -44.046 22.8161)" fill="#CCCBCB" width="16.671" height="16.384"/>
					
						<rect x="345.987" y="360.437" transform="matrix(0.9932 -0.1161 0.1161 0.9932 -40.4154 43.4052)" fill="#CCCBCB" width="12.794" height="16.384"/>
					<g>
						
							<rect x="361.373" y="358.904" transform="matrix(0.9933 -0.116 0.116 0.9933 -40.102 44.8606)" fill="#CCCBCB" width="8.279" height="16.382"/>
						
							<rect x="384.449" y="356.208" transform="matrix(0.9933 -0.116 0.116 0.9933 -39.6337 47.5182)" fill="#CCCBCB" width="8.279" height="16.382"/>
					</g>
					
						<rect x="328.399" y="362.386" transform="matrix(0.9932 -0.116 0.116 0.9932 -40.731 41.4557)" fill="#CCCBCB" width="14.619" height="16.384"/>
					<g>
						
							<rect x="371.74" y="357.59" transform="matrix(0.9933 -0.116 0.116 0.9933 -39.3007 46.0927)" fill="#CCCBCB" width="9.465" height="6.416"/>
						
							<rect x="372.896" y="367.489" transform="matrix(0.9932 -0.1161 0.1161 0.9932 -40.4741 46.3365)" fill="#CCCBCB" width="9.465" height="6.416"/>
					</g>
					
						<rect x="308.871" y="364.547" transform="matrix(0.9932 -0.1161 0.1161 0.9932 -41.1323 39.3508)" fill="#CCCBCB" width="16.67" height="16.384"/>
					<g>
						
							<rect x="190.242" y="357.205" transform="matrix(0.9932 -0.1161 0.1161 0.9932 -41.0801 25.2773)" fill="#CCCBCB" width="12.554" height="16.384"/>
						
							<rect x="162.996" y="359.742" transform="matrix(0.9932 -0.1161 0.1161 0.9932 -41.5259 22.7776)" fill="#CCCBCB" width="23.625" height="16.384"/>
						
							<rect x="205.947" y="355.372" transform="matrix(0.9933 -0.116 0.116 0.9933 -40.7305 27.0648)" fill="#CCCBCB" width="12.555" height="16.382"/>
						
							<rect x="221.652" y="353.536" transform="matrix(0.9932 -0.116 0.116 0.9932 -40.4374 28.8945)" fill="#CCCBCB" width="12.556" height="16.384"/>
						
							<rect x="237.357" y="351.702" transform="matrix(0.9932 -0.116 0.116 0.9932 -40.1184 30.7046)" fill="#CCCBCB" width="12.556" height="16.383"/>
						
							<rect x="253.063" y="349.866" transform="matrix(0.9932 -0.1161 0.1161 0.9932 -39.8245 32.5379)" fill="#CCCBCB" width="12.556" height="16.383"/>
						
							<rect x="268.769" y="348.03" transform="matrix(0.9932 -0.1161 0.1161 0.9932 -39.5109 34.3549)" fill="#CCCBCB" width="12.554" height="16.384"/>
						
							<rect x="284.474" y="346.195" transform="matrix(0.9932 -0.1161 0.1161 0.9932 -39.1669 36.141)" fill="#CCCBCB" width="12.554" height="16.384"/>
						
							<rect x="300.179" y="344.36" transform="matrix(0.9932 -0.1161 0.1161 0.9932 -38.8477 37.9514)" fill="#CCCBCB" width="12.554" height="16.384"/>
						
							<rect x="315.884" y="342.526" transform="matrix(0.9933 -0.116 0.116 0.9933 -38.5047 39.7339)" fill="#CCCBCB" width="12.553" height="16.383"/>
						
							<rect x="331.589" y="340.69" transform="matrix(0.9932 -0.1161 0.1161 0.9932 -38.2095 41.5722)" fill="#CCCBCB" width="12.554" height="16.384"/>
						
							<rect x="347.294" y="338.856" transform="matrix(0.9932 -0.1161 0.1161 0.9932 -37.8904 43.3826)" fill="#CCCBCB" width="12.554" height="16.383"/>
						
							<rect x="362.999" y="337.02" transform="matrix(0.9932 -0.1162 0.1162 0.9932 -37.6176 45.2559)" fill="#CCCBCB" width="12.554" height="16.384"/>
					</g>
					<g>
						
							<rect x="179.918" y="336.968" transform="matrix(0.9932 -0.1161 0.1161 0.9932 -38.8011 23.9424)" fill="#CCCBCB" width="12.554" height="16.384"/>
						
							<rect x="160.55" y="339.031" transform="matrix(0.9932 -0.1161 0.1161 0.9932 -39.1696 21.9142)" fill="#CCCBCB" width="15.991" height="16.384"/>
						
							<rect x="195.623" y="335.134" transform="matrix(0.9932 -0.1161 0.1161 0.9932 -38.4807 25.7517)" fill="#CCCBCB" width="12.555" height="16.383"/>
						
							<rect x="211.328" y="333.299" transform="matrix(0.9932 -0.1161 0.1161 0.9932 -38.1858 27.5817)" fill="#CCCBCB" width="12.555" height="16.383"/>
						
							<rect x="227.033" y="331.463" transform="matrix(0.9932 -0.1161 0.1161 0.9932 -37.8664 29.3932)" fill="#CCCBCB" width="12.555" height="16.384"/>
						
							<rect x="242.738" y="329.628" transform="matrix(0.9932 -0.1161 0.1161 0.9932 -37.5234 31.1825)" fill="#CCCBCB" width="12.555" height="16.384"/>
						
							<rect x="258.443" y="327.792" transform="matrix(0.9932 -0.1161 0.1161 0.9932 -37.2042 32.9928)" fill="#CCCBCB" width="12.555" height="16.384"/>
						
							<rect x="274.149" y="325.959" transform="matrix(0.9933 -0.116 0.116 0.9933 -36.8621 34.7785)" fill="#CCCBCB" width="12.554" height="16.383"/>
						
							<rect x="289.854" y="324.122" transform="matrix(0.9932 -0.1161 0.1161 0.9932 -36.566 36.6133)" fill="#CCCBCB" width="12.555" height="16.384"/>
						
							<rect x="305.559" y="322.288" transform="matrix(0.9932 -0.1161 0.1161 0.9932 -36.247 38.4236)" fill="#CCCBCB" width="12.555" height="16.383"/>
						
							<rect x="321.264" y="320.453" transform="matrix(0.9932 -0.1161 0.1161 0.9932 -35.9502 40.2619)" fill="#CCCBCB" width="12.555" height="16.384"/>
						
							<rect x="336.969" y="318.617" transform="matrix(0.9932 -0.1161 0.1161 0.9932 -35.6307 42.0734)" fill="#CCCBCB" width="12.555" height="16.384"/>
						
							<rect x="352.674" y="316.783" transform="matrix(0.9932 -0.116 0.116 0.9932 -35.2871 43.8509)" fill="#CCCBCB" width="12.556" height="16.384"/>
						<polygon fill="#CCCBCB" points="378.323,314.464 374.335,314.93 366.902,315.798 368.857,332.064 376.236,331.202         378.709,352.357 391.178,350.899 386.805,313.472       "/>
					</g>
					
						<rect x="392.683" y="312.108" transform="matrix(0.9933 -0.1159 0.1159 0.9933 -34.4372 48.4029)" fill="#CCCBCB" width="12.553" height="16.384"/>
					
						<rect x="408.388" y="310.273" transform="matrix(0.9933 -0.116 0.116 0.9933 -34.1394 50.2456)" fill="#CCCBCB" width="12.553" height="16.383"/>
					
						<rect x="424.093" y="308.438" transform="matrix(0.9933 -0.116 0.116 0.9933 -33.8182 52.0507)" fill="#CCCBCB" width="12.554" height="16.383"/>
					
						<rect x="441.257" y="322.18" transform="matrix(0.9932 -0.1161 0.1161 0.9932 -35.1089 54.1995)" fill="#CCCBCB" width="12.554" height="12.38"/>
					
						<rect x="439.439" y="306.632" transform="matrix(0.9933 -0.1159 0.1159 0.9933 -33.2528 53.7678)" fill="#CCCBCB" width="12.554" height="12.378"/>
					
						<rect x="443.94" y="337.315" transform="matrix(0.9932 -0.116 0.116 0.9932 -37.7293 54.62)" fill="#CCCBCB" width="12.556" height="28.034"/>
					
						<rect x="395.154" y="333.264" transform="matrix(0.9933 -0.1159 0.1159 0.9933 -36.8701 48.8281)" fill="#CCCBCB" width="12.554" height="16.382"/>
					
						<rect x="410.859" y="331.427" transform="matrix(0.9932 -0.1161 0.1161 0.9932 -36.5961 50.7061)" fill="#CCCBCB" width="12.555" height="16.384"/>
					
						<rect x="426.565" y="329.593" transform="matrix(0.9932 -0.1161 0.1161 0.9932 -36.2771 52.5164)" fill="#CCCBCB" width="12.555" height="16.383"/>
					
						<rect x="397.626" y="354.417" transform="matrix(0.9932 -0.1161 0.1161 0.9932 -39.3537 49.3256)" fill="#CCCBCB" width="12.555" height="16.384"/>
					
						<rect x="413.331" y="352.584" transform="matrix(0.9933 -0.116 0.116 0.9933 -39.0107 51.1005)" fill="#CCCBCB" width="12.554" height="16.382"/>
					
						<rect x="429.036" y="350.747" transform="matrix(0.9932 -0.1161 0.1161 0.9932 -38.7391 52.9828)" fill="#CCCBCB" width="12.555" height="16.384"/>
					<g>
						
							<rect x="158.775" y="328.029" transform="matrix(0.9932 -0.1161 0.1161 0.9932 -37.4183 21.6054)" fill="#CCCBCB" width="15.991" height="8.011"/>
						
							<rect x="177.177" y="325.88" transform="matrix(0.9932 -0.1161 0.1161 0.9932 -37.0443 23.7272)" fill="#CCCBCB" width="15.991" height="8.01"/>
						
							<rect x="195.58" y="323.729" transform="matrix(0.9932 -0.1161 0.1161 0.9932 -36.6692 25.8482)" fill="#CCCBCB" width="15.992" height="8.01"/>
						
							<rect x="213.982" y="321.578" transform="matrix(0.9932 -0.116 0.116 0.9932 -36.2771 27.9542)" fill="#CCCBCB" width="15.992" height="8.011"/>
						
							<rect x="232.384" y="319.428" transform="matrix(0.9932 -0.116 0.116 0.9932 -35.9033 30.0748)" fill="#CCCBCB" width="15.992" height="8.011"/>
						
							<rect x="250.787" y="317.278" transform="matrix(0.9932 -0.116 0.116 0.9932 -35.5316 32.1975)" fill="#CCCBCB" width="15.991" height="8.011"/>
						
							<rect x="269.19" y="315.128" transform="matrix(0.9932 -0.116 0.116 0.9932 -35.1558 34.3162)" fill="#CCCBCB" width="15.992" height="8.01"/>
						
							<rect x="287.592" y="312.978" transform="matrix(0.9932 -0.116 0.116 0.9932 -34.782 36.4368)" fill="#CCCBCB" width="15.992" height="8.01"/>
						
							<rect x="305.994" y="310.828" transform="matrix(0.9933 -0.116 0.116 0.9933 -34.3935 38.5388)" fill="#CCCBCB" width="15.991" height="8.01"/>
						
							<rect x="324.397" y="308.677" transform="matrix(0.9932 -0.116 0.116 0.9932 -34.0383 40.6832)" fill="#CCCBCB" width="15.99" height="8.01"/>
						
							<rect x="342.799" y="306.527" transform="matrix(0.9932 -0.1161 0.1161 0.9932 -33.6769 42.8221)" fill="#CCCBCB" width="15.992" height="8.01"/>
						
							<rect x="361.201" y="304.377" transform="matrix(0.9932 -0.1161 0.1161 0.9932 -33.3029 44.9438)" fill="#CCCBCB" width="15.992" height="8.01"/>
						
							<rect x="379.604" y="302.226" transform="matrix(0.9932 -0.1161 0.1161 0.9932 -32.9307 47.0685)" fill="#CCCBCB" width="15.991" height="8.01"/>
						
							<rect x="398.006" y="300.076" transform="matrix(0.9932 -0.1161 0.1161 0.9932 -32.5566 49.1903)" fill="#CCCBCB" width="15.991" height="8.01"/>
						
							<rect x="416.409" y="297.927" transform="matrix(0.9933 -0.116 0.116 0.9933 -32.1504 51.2536)" fill="#CCCBCB" width="15.992" height="8.009"/>
						
							<rect x="434.811" y="295.777" transform="matrix(0.9933 -0.116 0.116 0.9933 -31.7786 53.3765)" fill="#CCCBCB" width="15.991" height="8.008"/>
					</g>
				</g>
				
					<rect x="158.859" y="389.212" transform="matrix(0.9932 -0.1161 0.1161 0.9932 -43.2885 39.0176)" fill="#D8D8D8" width="309.122" height="4.075"/>
			</g>
			
				<rect x="148.572" y="300.449" transform="matrix(0.9932 -0.1161 0.1161 0.9932 -33.1392 37.2328)" fill="#E7E7E8" width="309.203" height="5.513"/>
		</g>
		<g>
			<g>
				<circle fill="#C3E4F0" cx="505.609" cy="156.251" r="20.917"/>
				<path fill="#FFFEFE" d="M472.724,174.083l3.628,5.567l10.526-6.86c7.944,9.217,21.672,11.371,32.147,4.545      c11.42-7.442,14.646-22.733,7.203-34.153s-22.732-14.645-34.153-7.203c-10.476,6.827-14.048,20.255-8.824,31.245      L472.724,174.083z M495.319,140.956c8.671-5.651,20.282-3.202,25.933,5.469c5.651,8.672,3.202,20.282-5.469,25.933      c-8.673,5.651-20.282,3.202-25.934-5.469C484.199,158.217,486.648,146.607,495.319,140.956z"/>
				<circle fill="#E1F1F7" cx="507.967" cy="160.29" r="12.481"/>
				<circle fill="#FDFFFF" cx="511.715" cy="166.042" r="4.352"/>
			</g>
			<path fill="#2C2E3A" d="M472.553,171.302c-0.423,0.209-0.84,0.44-1.251,0.708l-45.33,29.539     c-3.922,2.556-5.697,6.848-3.944,9.537c1.753,2.69,6.396,2.799,10.317,0.243l45.33-29.54c0.409-0.267,0.79-0.557,1.152-0.859     L472.553,171.302z"/>
		</g>
		<g>
			<path fill="#BDBEC0" d="M348.748,179.446c0.104,17.263-27.39,45.362-61.4,45.564c-34.153,0.203-61.81-27.567-61.912-44.833     c-0.104-17.257,27.387-31.412,61.541-31.616C320.987,148.359,348.646,162.19,348.748,179.446z"/>
			<path fill="#4B72AA" d="M348.308,178.588c0.102,17.267-27.391,44.305-61.407,44.507c-34.148,0.203-61.803-26.509-61.907-43.776     c-0.104-17.257,27.388-31.418,61.536-31.622C320.545,147.496,348.205,161.33,348.308,178.588z"/>
			<path fill="#2C2E3A" d="M347.753,177.518c0.101,17.263-27.39,45.362-61.401,45.563c-34.152,0.204-61.808-27.568-61.91-44.831     c-0.104-17.26,27.387-31.425,61.539-31.626C319.99,146.422,347.65,160.255,347.753,177.518z"/>
			<path fill="#2C2E3A" d="M492.539,93.728c0.015,2.253-2.387,4.084-5.364,4.102l-396.733,2.358     c-2.982,0.017-5.408-1.784-5.422-4.037l-0.051-8.462c-0.013-2.241,2.395-4.082,5.374-4.097l396.733-2.358     c2.977-0.018,5.4,1.792,5.412,4.034L492.539,93.728z"/>
			<path fill="#BDBEC0" d="M136.161,184.576c0.887,1.505,3.361,2.704,5.536,2.691l289.633-1.722     c2.162-0.012,4.697-1.242,5.668-2.758l5.861-9.208l-312.6,1.856L136.161,184.576z"/>
			<path fill="#414654" d="M489.324,93.073L88.396,95.454c-3.014,0.017-4.118,2.288-2.497,5.023l43.023,73.526l0.073,0.11l0.053,0     l5.953,9.144c0.891,1.508,3.382,2.704,5.576,2.691l291.847-1.735c2.183-0.012,4.738-1.24,5.715-2.759l5.911-9.214l-0.065,0.001     l0.07-0.112l47.499-74.062C493.319,95.311,492.334,93.053,489.324,93.073z"/>
			<path fill="#FFFFFF" d="M91.541,100.885l47.327,78.041l295.032-1.918l49.781-78.174     C483.941,98.425,91.541,100.885,91.541,100.885z"/>
			<polygon fill="#4BC1DD" points="90.444,100.761 137.424,180.424 434.732,177.168 483.885,98.534    "/>
			<polygon opacity="0.18" fill="#F2F2F2" points="90.444,100.761 288.791,177.951 137.424,180.424    "/>
			<g>
				<defs>
					<polygon id="SVGID_12_" points="90.441,100.188 137.424,180.424 434.732,177.168 483.885,98.534      "/>
				</defs>
				<clipPath id="SVGID_13_">
					<use xlink:href="#SVGID_12_" overflow="visible"/>
				</clipPath>
			</g>
		</g>
		<g>
			<g>
				<path fill="#414654" d="M523.796,277.467l-47.469-14.776c-0.622-0.194-0.973-0.86-0.779-1.483l27.614-88.715      c0.388-1.245,1.723-1.946,2.967-1.558l45.206,14.071c1.245,0.387,1.946,1.723,1.559,2.967l-27.614,88.714      C525.086,277.31,524.419,277.66,523.796,277.467z"/>
				<path fill="#2C2E3A" d="M526.543,264.779l-45.277-14.094l21.558-69.255c0.194-0.625,0.858-0.974,1.483-0.779l43.015,13.39      c0.625,0.194,0.974,0.858,0.779,1.483L526.543,264.779z"/>
				<path fill="#343A54" d="M531.122,184.514l-8.071-2.512c-0.154-0.048-0.239-0.212-0.192-0.365l0,0      c0.048-0.153,0.212-0.239,0.364-0.192l8.073,2.513c0.152,0.047,0.238,0.212,0.191,0.365l0,0      C531.439,184.476,531.275,184.562,531.122,184.514z"/>
				<circle fill="#343A54" cx="520.678" cy="180.958" r="0.68"/>
				<g>
					<circle fill="#2C2E3A" cx="502.008" cy="263.824" r="3.887"/>
					<g>
						<path fill="#414654" d="M502.41,265.427l-1.643-0.511c-0.23-0.071-0.359-0.318-0.288-0.549l0.578-1.858        c0.072-0.229,0.318-0.359,0.549-0.288l1.643,0.512c0.23,0.072,0.359,0.317,0.288,0.549l-0.579,1.858        C502.887,265.37,502.64,265.498,502.41,265.427z M501.56,262.371c-0.147-0.045-0.305,0.037-0.35,0.186l-0.579,1.858        c-0.046,0.147,0.037,0.304,0.185,0.35l1.642,0.512c0.147,0.046,0.305-0.037,0.35-0.185l0.579-1.858        c0.046-0.146-0.037-0.304-0.185-0.351L501.56,262.371z"/>
					</g>
				</g>
			</g>
			<path opacity="0.17" fill="#F2F2F2" d="M548.101,195.524l-54.819,16.558l9.542-30.651c0,0,0.564-1.065,1.483-0.779     c0.918,0.286,43.015,13.39,43.015,13.39S548.44,194.429,548.101,195.524z"/>
		</g>
		<g>
			<g>
				<path fill="#414654" d="M531.737,391.409l-39.249,11.192c-1.025,0.291-2.094-0.303-2.385-1.328l-6.641-23.283      c-0.292-1.025,0.302-2.094,1.327-2.387l39.249-11.191c1.025-0.292,2.094,0.302,2.386,1.327l6.64,23.285      C533.356,390.049,532.763,391.116,531.737,391.409z"/>
				
					<rect x="484.124" y="373.873" transform="matrix(0.9617 -0.2742 0.2742 0.9617 -84.0143 153.3326)" fill="#2C2E3A" width="44.674" height="6.623"/>
				
					<rect x="487.296" y="384.303" transform="matrix(0.9617 -0.2742 0.2742 0.9617 -86.9489 154.6445)" fill="#E9E9EA" width="44.674" height="8.007"/>
				
					<rect x="512.151" y="385.819" transform="matrix(0.9617 -0.2741 0.2741 0.9617 -86.2151 156.2052)" fill="#2C2E3A" width="7.217" height="1.483"/>
				
					<rect x="521.695" y="383.379" transform="matrix(0.9616 -0.2743 0.2743 0.9616 -85.2601 158.5703)" fill="#2C2E3A" width="5.24" height="1.483"/>
				
					<rect x="484.374" y="371.888" transform="matrix(0.9617 -0.2742 0.2742 0.9617 -82.7458 152.2755)" fill="#2C2E3A" width="37.761" height="0.396"/>
				
					<rect x="490.996" y="395.036" transform="matrix(0.9617 -0.2742 0.2742 0.9617 -88.9041 154.8418)" fill="#2C2E3A" width="36.674" height="0.692"/>
			</g>
			<g>
				<g>
					<g>
						<path fill="#414654" d="M519.67,427.21l-38.623-17.672c-0.971-0.443-1.396-1.589-0.953-2.558l10.508-22.967        c0.444-0.97,1.589-1.397,2.559-0.954l38.625,17.673c0.969,0.443,1.396,1.589,0.952,2.559l-10.509,22.967        C521.785,427.228,520.64,427.653,519.67,427.21z"/>
					</g>
				</g>
				<g>
					<circle fill="#F9D93D" cx="513.806" cy="419.078" r="3.537"/>
					<circle fill="#E84B3D" cx="518.247" cy="421.106" r="3.537"/>
				</g>
				
					<rect x="479.98" y="409.005" transform="matrix(0.9096 0.4155 -0.4155 0.9096 215.3682 -168.631)" fill="#2C2E3A" width="30.316" height="3.038"/>
				
					<rect x="486.612" y="392.598" transform="matrix(0.9096 0.4156 -0.4156 0.9096 211.3862 -175.8723)" fill="#F3F3F3" width="46.345" height="10.311"/>
				<g>
					<path fill="#2C2E3A" d="M503.297,395.019l-0.905-0.413l-0.389,0.851l0.801,0.367l0.272-0.32l0.402,0.185l-0.413,0.905       l-2.339-1.069l0.174-0.381l0.398,0.02l0.961-2.105l-0.273-0.289l0.173-0.38l1.04,0.448l1.255,0.573l-0.395,0.864l-0.402-0.184       l0.036-0.379l-0.739-0.338l-0.338,0.74l0.905,0.412L503.297,395.019z"/>
					<path fill="#2C2E3A" d="M505.267,396.461l-1.277-0.583l0.256-0.561l1.277,0.583L505.267,396.461z"/>
					<path fill="#2C2E3A" d="M508.498,395.955c0,0-0.178-0.168-0.469-0.301c-0.471-0.215-0.899,0.012-1.241,0.76       c-0.332,0.725-0.179,1.163,0.291,1.378c0.448,0.206,0.995,0.076,0.995,0.076l0.063,0.515c0,0-0.694,0.274-1.398-0.047       c-0.908-0.416-1.184-1.201-0.708-2.241c0.48-1.053,1.358-1.41,2.276-0.99c0.543,0.248,0.949,0.688,0.949,0.688l-0.412,0.84       l-0.438-0.2L508.498,395.955z"/>
					<path fill="#2C2E3A" d="M511.29,400.35l-1.425-0.65l0.174-0.381l0.392,0.032l0.042-0.376l-0.995-0.454l-0.259,0.271       l0.293,0.285l-0.175,0.382l-1.354-0.619l0.174-0.381l0.385,0.024l2.191-2.188l0.724,0.313l-0.249,3.093l0.256,0.27       L511.29,400.35z M510.693,397.212l-0.84,0.9l0.69,0.315L510.693,397.212z"/>
					<path fill="#2C2E3A" d="M511.646,400.052l0.396,0.02l0.962-2.106l-0.274-0.288l0.175-0.38l1.041,0.448l0.34,0.155       c0.734,0.336,1.025,0.837,0.747,1.446c-0.192,0.422-0.52,0.603-0.893,0.615c0.022,0.081,0.051,0.196,0.056,0.377l0.02,0.751       l0.253,0.251l-0.175,0.381l-0.828-0.378l0.002-1.002c0.004-0.409-0.004-0.5-0.242-0.608l-0.156-0.071l-0.332,0.727l0.262,0.281       l-0.174,0.381l-1.353-0.618L511.646,400.052z M513.539,399.308c0.354,0.162,0.637,0.086,0.775-0.214       c0.116-0.256,0.029-0.518-0.248-0.644l-0.367-0.168l-0.415,0.909L513.539,399.308z"/>
					<path fill="#2C2E3A" d="M516.053,399.357l-0.274-0.288l0.173-0.381l1.042,0.448l0.425,0.194       c0.896,0.409,1.184,1.181,0.723,2.188c-0.46,1.008-1.323,1.354-2.233,0.94l-1.389-0.636l0.175-0.38l0.397,0.019       L516.053,399.357z M516.167,401.928c0.435,0.199,0.843,0.076,1.212-0.73c0.343-0.752,0.21-1.138-0.229-1.339l-0.404-0.183       l-0.951,2.083L516.167,401.928z"/>
				</g>
				
					<rect x="483.233" y="406.428" transform="matrix(0.9096 0.4155 -0.4155 0.9096 214.8799 -173.2252)" fill="#D3D2D2" width="44.437" height="1.359"/>
			</g>
		</g>
	</g>
</g>
<g>
	<path fill="none" stroke="#7D7D7D" stroke-width="2" stroke-linecap="round" stroke-linejoin="round" stroke-miterlimit="10" d="   M388.801,331.179c0,0,1.381-10.396,13.568-21.739c12.188-11.345,26.472-38.571-13.568-24.902   c-40.041,13.667-72.083,0-88.996-26.168c-16.9-26.148-0.984-48.337,34.686-57.811"/>
	<path fill="none" stroke="#7D7D7D" stroke-width="2" stroke-linecap="round" stroke-linejoin="round" stroke-miterlimit="10" d="   M473.139,396.922c0,0,2.104-8.813,0.002-21.612s-4.326-25.464,16.396-37.851c47.658-28.482,37.212-137.162-56.146-137.162"/>
	<path fill="#7D7D7D" d="M396.011,330.801l-221.739-39.098c-7.072-1.248-13.878,3.519-15.125,10.592l-14.699,83.354   c-1.247,7.073,3.519,13.879,10.591,15.126l221.742,39.098c7.071,1.247,13.878-3.52,15.125-10.592l14.696-83.354   C407.85,338.854,403.083,332.048,396.011,330.801z"/>
	<path fill="#7D7D7D" d="M159.524,445.725l-6.301-35.734l-1.848,0.326l0,0l-0.186,0.032c-0.858,0.152-1.655,0.649-2.188,1.455   c-0.534,0.806-0.701,1.769-0.542,2.673l2.163,12.263l-1.021,0.18l-0.226-1.282l0,0l-9.934-56.336l-6.353-12.903   c-0.124-0.7-0.791-1.168-1.491-1.045c-0.7,0.124-1.169,0.792-1.045,1.492c0,0,0.001,0.001,0.001,0.003l-1.555,14.295l10.47,59.381   l0.413,2.343l0,0l2.736,15.521l0,0l0.111,0.627l5.222-0.921l-3.918,0.691l2.612,14.82c0.152,0.858,0.63,1.659,1.4,2.197   c0.77,0.541,1.688,0.717,2.546,0.566l1.129-0.2c0.858-0.152,1.661-0.632,2.197-1.401c0.541-0.771,0.717-1.686,0.566-2.544   l-2.614-14.82l1.303-0.229l-0.524-2.974l0.298,1.691l1.019-0.18l0.761,4.318l2.035-0.36c0.519-0.092,1.009-0.315,1.439-0.64v0.001   c0.003-0.001,0.004-0.004,0.007-0.006c0.131-0.099,0.26-0.202,0.378-0.321c0.134-0.132,0.26-0.274,0.373-0.434   C159.5,447.499,159.676,446.582,159.524,445.725z M152.449,443.066l-2.123-12.042l0,0l-0.226-1.282l1.019-0.179l2.35,13.325   L152.449,443.066z"/>
	<path fill="#7D7D7D" d="M114.23,354.086l-13.422,2.367c-0.308-1.324-1.568-2.21-2.879-1.978c-1.311,0.23-2.192,1.492-2.03,2.844   l-3.734,0.657c-0.309-1.323-1.568-2.208-2.88-1.978c-1.312,0.231-2.193,1.493-2.031,2.844l-3.734,0.659   c-0.309-1.325-1.567-2.21-2.878-1.979c-1.313,0.231-2.193,1.494-2.031,2.843l-3.733,0.658c-0.309-1.323-1.57-2.208-2.88-1.977   c-1.312,0.231-2.193,1.492-2.03,2.844l-3.735,0.658c-0.308-1.325-1.567-2.209-2.878-1.979c-1.312,0.232-2.194,1.494-2.033,2.845   l-3.731,0.658c-0.31-1.325-1.57-2.21-2.881-1.978c-1.311,0.231-2.193,1.494-2.03,2.844l-3.733,0.657   c-0.31-1.323-1.569-2.208-2.881-1.977c-1.311,0.231-2.192,1.492-2.031,2.844l-3.732,0.658c-0.31-1.326-1.57-2.209-2.881-1.979   c-1.311,0.232-2.192,1.495-2.031,2.844l-3.732,0.658c-0.31-1.324-1.57-2.209-2.881-1.977c-1.311,0.232-2.192,1.494-2.03,2.844   l-13.42,2.366l23.325,132.281l100.902-17.793L114.23,354.086z"/>
	<path fill="#7D7D7D" d="M497.188,416.875c-0.53-1.912-1.418-3.629-2.563-5.108l-4.678-6.028c-1.339-1.728-3.078-3.186-5.173-4.213   c-2.098-1.026-4.316-1.507-6.5-1.507h-8.02c-2.128,0-4.289,0.456-6.34,1.429c-2.05,0.974-3.768,2.36-5.113,4.011l-5.085,6.239   c-1.219,1.493-2.168,3.247-2.738,5.216c-0.57,1.967-0.709,3.956-0.482,5.871l3.399,28.46c0.412,3.466,2.045,6.799,4.86,9.298   c2.816,2.499,6.319,3.725,9.81,3.725h10.961c3.491,0,6.993-1.226,9.808-3.725c2.816-2.499,4.449-5.832,4.863-9.298l3.423-28.67   C497.841,420.719,497.718,418.789,497.188,416.875z"/>
	<path fill="#7D7D7D" d="M225.562,219.535l-0.52-2.944c-0.109-0.617-0.454-1.192-1.007-1.58c-0.554-0.388-1.211-0.514-1.829-0.406   l-6.43,1.133c-5.427-19.729-25.08-32.452-45.635-28.827c-21.14,3.727-35.475,23.373-32.85,44.436   c0.085,0.683,0.187,1.368,0.308,2.053c0.005,0.027,0.013,0.053,0.018,0.079c0.169,0.949,0.38,1.88,0.613,2.801   c0.056,0.223,0.11,0.446,0.169,0.667c0.244,0.897,0.513,1.781,0.813,2.647c0.073,0.211,0.153,0.417,0.23,0.627   c0.276,0.758,0.574,1.506,0.893,2.24c0.073,0.167,0.139,0.337,0.213,0.502c0.366,0.81,0.764,1.598,1.179,2.375   c0.13,0.244,0.263,0.485,0.398,0.727c0.422,0.753,0.862,1.495,1.33,2.214c0.126,0.195,0.263,0.384,0.393,0.576   c0.394,0.583,0.802,1.154,1.225,1.714c0.168,0.223,0.333,0.449,0.505,0.668c0.509,0.644,1.037,1.27,1.581,1.879   c0.211,0.237,0.428,0.468,0.645,0.699c0.475,0.507,0.96,1.002,1.46,1.482c0.255,0.247,0.514,0.488,0.777,0.728   c0.488,0.445,0.987,0.878,1.497,1.3c0.263,0.218,0.527,0.436,0.796,0.646c0.612,0.479,1.235,0.944,1.875,1.39   c0.286,0.197,0.576,0.385,0.867,0.576c0.481,0.316,0.969,0.622,1.464,0.918c0.341,0.204,0.681,0.406,1.028,0.601   c0.607,0.338,1.223,0.659,1.846,0.966c0.345,0.17,0.691,0.336,1.041,0.495c0.627,0.287,1.261,0.56,1.903,0.813   c0.399,0.16,0.802,0.304,1.206,0.45c0.501,0.18,1.006,0.351,1.515,0.512c0.37,0.116,0.738,0.235,1.112,0.341   c0.719,0.205,1.447,0.386,2.18,0.551c0.398,0.089,0.797,0.166,1.197,0.243c0.546,0.104,1.095,0.194,1.646,0.276   c0.273,0.041,0.541,0.102,0.815,0.138c-0.008-0.005-0.014-0.01-0.021-0.015c3.916,0.5,7.973,0.426,12.066-0.297   c20.464-3.607,34.551-22.134,33.05-42.423l6.451-1.137c0.617-0.108,1.192-0.453,1.58-1.007   C225.542,220.81,225.67,220.15,225.562,219.535z"/>
	<path fill="none" stroke="#FFFFFF" stroke-width="2" stroke-linecap="round" stroke-linejoin="round" stroke-miterlimit="10" d="   M386.259,331.179c0,0,1.381-10.396,13.568-21.739c12.188-11.345,26.473-38.571-13.568-24.902c-40.04,13.667-72.082,0-88.995-26.168   c-16.9-26.148-0.984-48.337,34.686-57.811"/>
	<path fill="none" stroke="#FFFFFF" stroke-width="2" stroke-linecap="round" stroke-linejoin="round" stroke-miterlimit="10" d="   M471.564,396.922c0,0,2.103-8.813,0.001-21.612c-2.101-12.8-4.326-25.464,16.396-37.851   c47.658-28.482,37.213-137.162-56.145-137.162"/>
	<g>
		
			<rect x="17.518" y="357.156" transform="matrix(0.9848 -0.1737 0.1737 0.9848 -72.6389 18.3846)" fill="#8CD4E0" width="102.458" height="134.323"/>
		<path fill="#7D7D7D" d="M12.926,376.392l20.747,117.665l78.048-13.762l11.399-16.278l-18.308-103.827L12.926,376.392z     M26.145,384.889c-1.998,0.353-3.903-0.981-4.255-2.979c-0.352-1.998,0.982-3.903,2.98-4.255c1.999-0.352,3.903,0.981,4.255,2.979    C29.476,382.632,28.143,384.537,26.145,384.889z M34.789,383.364c-1.997,0.352-3.903-0.981-4.255-2.979    c-0.352-1.998,0.982-3.903,2.98-4.255c1.997-0.353,3.902,0.98,4.254,2.979C38.12,381.107,36.786,383.012,34.789,383.364z     M43.433,381.842c-1.998,0.352-3.902-0.983-4.255-2.981c-0.352-1.997,0.982-3.901,2.98-4.254c1.998-0.352,3.902,0.982,4.254,2.979    C46.764,379.582,45.431,381.488,43.433,381.842z M52.075,380.316c-1.997,0.353-3.902-0.981-4.255-2.979    c-0.352-1.999,0.983-3.903,2.98-4.256c1.998-0.353,3.904,0.981,4.255,2.979C55.408,378.06,54.073,379.965,52.075,380.316z     M60.72,378.793c-1.997,0.352-3.903-0.983-4.254-2.98c-0.353-1.998,0.981-3.901,2.979-4.255c1.997-0.352,3.902,0.981,4.255,2.98    C64.052,376.535,62.717,378.439,60.72,378.793z M69.363,377.27c-1.998,0.352-3.903-0.982-4.255-2.98s0.982-3.902,2.979-4.255    c1.998-0.352,3.903,0.981,4.255,2.979C72.695,375.01,71.36,376.916,69.363,377.27z M78.008,375.744    c-1.998,0.352-3.903-0.981-4.256-2.979c-0.353-1.998,0.982-3.904,2.979-4.256c1.998-0.353,3.902,0.981,4.255,2.979    S80.004,375.393,78.008,375.744z M86.65,374.221c-1.998,0.352-3.902-0.983-4.254-2.98c-0.353-1.996,0.981-3.901,2.979-4.255    c1.998-0.352,3.902,0.981,4.255,2.98C89.982,371.962,88.648,373.867,86.65,374.221z M95.295,372.696    c-1.997,0.353-3.903-0.982-4.255-2.98c-0.353-1.997,0.981-3.902,2.979-4.254c1.999-0.353,3.903,0.981,4.255,2.979    C98.626,370.438,97.293,372.345,95.295,372.696z"/>
		<path fill="#FFFFFF" d="M12.491,373.924L33.238,491.59l78.049-13.764l11.397-16.278l-18.308-103.826L12.491,373.924z     M25.71,382.421c-1.998,0.352-3.903-0.982-4.255-2.98s0.982-3.903,2.979-4.255c1.998-0.352,3.904,0.982,4.256,2.98    C29.041,380.164,27.708,382.068,25.71,382.421z M34.354,380.896c-1.998,0.352-3.903-0.981-4.255-2.979    c-0.354-1.999,0.981-3.903,2.98-4.255c1.996-0.353,3.901,0.98,4.254,2.979C37.685,378.639,36.351,380.544,34.354,380.896z     M42.998,379.372c-1.998,0.353-3.903-0.98-4.255-2.98c-0.353-1.996,0.981-3.901,2.979-4.253c1.997-0.353,3.903,0.981,4.255,2.979    C46.329,377.115,44.996,379.021,42.998,379.372z M51.641,377.848c-1.997,0.353-3.903-0.981-4.255-2.979    c-0.352-1.999,0.982-3.904,2.979-4.256c1.998-0.352,3.903,0.981,4.255,2.979C54.973,375.591,53.639,377.496,51.641,377.848z     M60.286,376.324c-1.998,0.351-3.903-0.981-4.255-2.979c-0.352-1.998,0.98-3.903,2.979-4.255c1.998-0.354,3.903,0.98,4.255,2.979    C63.617,374.066,62.282,375.971,60.286,376.324z M68.928,374.801c-1.998,0.352-3.903-0.982-4.255-2.981    c-0.353-1.997,0.981-3.901,2.979-4.254c1.998-0.352,3.903,0.982,4.254,2.979C72.259,372.542,70.926,374.447,68.928,374.801z     M77.572,373.275c-1.998,0.352-3.903-0.981-4.256-2.979c-0.352-1.999,0.982-3.903,2.979-4.256    c1.998-0.353,3.903,0.981,4.255,2.979C80.903,371.019,79.569,372.924,77.572,373.275z M86.215,371.75    c-1.998,0.354-3.902-0.979-4.254-2.979c-0.352-1.996,0.981-3.901,2.979-4.255c1.998-0.352,3.903,0.98,4.255,2.98    C89.547,369.494,88.213,371.398,86.215,371.75z M94.858,370.229c-1.998,0.352-3.902-0.982-4.254-2.981    c-0.354-1.997,0.981-3.902,2.979-4.254s3.903,0.981,4.255,2.979C98.19,367.971,96.858,369.875,94.858,370.229z"/>
		<polygon fill="#7D7D7D" points="111.285,477.826 122.685,461.548 108.847,463.988   "/>
		<g>
			<line fill="none" stroke="#CCCBCC" stroke-miterlimit="10" x1="23.793" y1="385.987" x2="97.882" y2="372.924"/>
			<line fill="none" stroke="#CCCBCC" stroke-miterlimit="10" x1="25.294" y1="394.498" x2="99.383" y2="381.434"/>
			<line fill="none" stroke="#CCCBCC" stroke-miterlimit="10" x1="26.794" y1="403.008" x2="78.656" y2="393.863"/>
			<line fill="none" stroke="#CCCBCC" stroke-miterlimit="10" x1="28.295" y1="411.521" x2="80.157" y2="402.376"/>
			<line fill="none" stroke="#CCCBCC" stroke-miterlimit="10" x1="29.796" y1="420.031" x2="81.658" y2="410.886"/>
			<line fill="none" stroke="#CCCBCC" stroke-miterlimit="10" x1="31.296" y1="428.542" x2="105.387" y2="415.479"/>
			<line fill="none" stroke="#CCCBCC" stroke-miterlimit="10" x1="32.797" y1="437.054" x2="106.889" y2="423.988"/>
			<line fill="none" stroke="#CCCBCC" stroke-miterlimit="10" x1="34.297" y1="445.564" x2="108.388" y2="432.501"/>
			<line fill="none" stroke="#CCCBCC" stroke-miterlimit="10" x1="35.799" y1="454.076" x2="109.888" y2="441.012"/>
			
				<rect x="83.511" y="391.464" transform="matrix(0.9848 -0.1737 0.1737 0.9848 -68.0722 22.2345)" fill="none" stroke="#CCCBCC" stroke-miterlimit="10" width="19.018" height="17.284"/>
			<g>
				
					<rect x="38.219" y="459.088" transform="matrix(0.9848 -0.1737 0.1737 0.9848 -80.5639 14.3277)" fill="#027ABB" width="6.736" height="16.842"/>
				
					<rect x="49.682" y="464.158" transform="matrix(0.9848 -0.1738 0.1738 0.9848 -80.7122 16.3579)" fill="#F7AF19" width="6.737" height="9.804"/>
				
					<rect x="60.338" y="460.013" transform="matrix(0.9848 -0.1735 0.1735 0.9848 -79.8918 18.1211)" fill="#093D5F" width="6.737" height="12.053"/>
				
					<rect x="70.775" y="453.348" transform="matrix(0.9848 -0.1735 0.1735 0.9848 -79.0035 19.8709)" fill="#CCCBCC" width="6.736" height="16.841"/>
			</g>
		</g>
		<g>
			<path fill="#444849" d="M27.091,375.814c0.248,1.403-0.66,2.749-2.019,2.988c-1.357,0.24-2.672-0.713-2.92-2.117l-2.086-11.833     c-0.248-1.405,0.661-2.749,2.019-2.989c1.358-0.239,2.672,0.713,2.92,2.117L27.091,375.814z"/>
			<path fill="#444849" d="M35.735,374.291c0.248,1.403-0.661,2.749-2.019,2.988c-1.359,0.24-2.672-0.714-2.92-2.119l-2.087-11.833     c-0.248-1.403,0.661-2.749,2.02-2.989c1.358-0.239,2.672,0.715,2.92,2.118L35.735,374.291z"/>
			<path fill="#444849" d="M44.378,372.766c0.248,1.405-0.66,2.749-2.018,2.988c-1.359,0.24-2.673-0.713-2.921-2.116l-2.086-11.834     c-0.248-1.404,0.661-2.749,2.019-2.987c1.359-0.24,2.673,0.711,2.921,2.116L44.378,372.766z"/>
			<path fill="#444849" d="M53.023,371.243c0.247,1.402-0.661,2.749-2.02,2.989c-1.358,0.238-2.672-0.715-2.92-2.12l-2.086-11.834     c-0.248-1.403,0.661-2.748,2.019-2.987c1.358-0.24,2.672,0.714,2.92,2.118L53.023,371.243z"/>
			<path fill="#444849" d="M61.667,369.718c0.248,1.405-0.661,2.749-2.019,2.989c-1.358,0.239-2.673-0.714-2.92-2.119l-2.087-11.833     c-0.248-1.404,0.662-2.749,2.021-2.989c1.358-0.239,2.671,0.715,2.918,2.118L61.667,369.718z"/>
			<path fill="#444849" d="M70.311,368.193c0.248,1.404-0.661,2.749-2.02,2.988c-1.358,0.24-2.672-0.714-2.919-2.116l-2.086-11.835     c-0.248-1.403,0.66-2.748,2.019-2.988c1.358-0.238,2.672,0.713,2.919,2.118L70.311,368.193z"/>
			<path fill="#444849" d="M78.954,366.669c0.248,1.404-0.661,2.751-2.02,2.989c-1.358,0.239-2.672-0.713-2.92-2.118l-2.086-11.833     c-0.248-1.404,0.66-2.749,2.02-2.988c1.358-0.24,2.671,0.714,2.919,2.116L78.954,366.669z"/>
			<path fill="#444849" d="M87.598,365.146c0.248,1.405-0.662,2.749-2.02,2.989c-1.358,0.239-2.673-0.715-2.92-2.118l-2.086-11.835     c-0.248-1.403,0.661-2.748,2.019-2.988c1.359-0.24,2.674,0.714,2.921,2.119L87.598,365.146z"/>
			<path fill="#444849" d="M96.242,363.62c0.249,1.405-0.662,2.749-2.02,2.989c-1.358,0.239-2.673-0.714-2.921-2.117l-2.085-11.832     c-0.248-1.405,0.661-2.751,2.019-2.989c1.358-0.239,2.672,0.713,2.919,2.116L96.242,363.62z"/>
		</g>
	</g>
	<g>
		<g>
			<path fill="#FFFFFF" d="M387.317,427.394c-0.955,5.416-6.168,9.066-11.585,8.111l-227.762-40.159     c-5.417-0.955-9.067-6.168-8.111-11.584l15.76-89.377c0.956-5.416,6.168-9.066,11.585-8.111l227.759,40.159     c5.417,0.955,9.067,6.168,8.112,11.584L387.317,427.394z"/>
		</g>
		<g>
			<g>
				<path fill="#CCCCCC" d="M191.032,310.229c-0.191,1.083-1.233,1.813-2.317,1.623l-7.648-1.349      c-1.083-0.19-1.813-1.233-1.623-2.316l1.35-7.649c0.191-1.083,1.233-1.813,2.317-1.622l7.647,1.348      c1.083,0.191,1.813,1.234,1.623,2.317L191.032,310.229z"/>
			</g>
			<g>
				<path fill="#CCCCCC" d="M206.443,312.948c-0.191,1.083-1.234,1.813-2.317,1.622l-7.649-1.349      c-1.083-0.191-1.813-1.234-1.623-2.317l1.35-7.649c0.191-1.083,1.233-1.813,2.317-1.622l7.649,1.35      c1.083,0.191,1.813,1.234,1.622,2.317L206.443,312.948z"/>
			</g>
			<g>
				<path fill="#CCCCCC" d="M221.855,315.664c-0.191,1.083-1.233,1.813-2.317,1.623l-7.649-1.349      c-1.083-0.19-1.813-1.233-1.623-2.316l1.348-7.648c0.191-1.083,1.233-1.813,2.317-1.623l7.649,1.349      c1.083,0.19,1.813,1.233,1.623,2.316L221.855,315.664z"/>
			</g>
			<g>
				<path fill="#CCCCCC" d="M237.267,318.383c-0.191,1.083-1.233,1.813-2.317,1.623l-7.651-1.349      c-1.083-0.19-1.813-1.233-1.623-2.316l1.35-7.649c0.191-1.083,1.233-1.813,2.317-1.622l7.65,1.348      c1.083,0.191,1.813,1.234,1.623,2.317L237.267,318.383z"/>
			</g>
			<g>
				<path fill="#CCCCCC" d="M252.679,321.101c-0.191,1.083-1.233,1.813-2.317,1.622l-7.65-1.349      c-1.083-0.191-1.813-1.234-1.623-2.317l1.349-7.647c0.191-1.083,1.233-1.813,2.317-1.622l7.65,1.349      c1.083,0.191,1.813,1.234,1.623,2.317L252.679,321.101z"/>
			</g>
			<g>
				<path fill="#CCCCCC" d="M268.089,323.817c-0.191,1.083-1.234,1.813-2.317,1.622l-7.65-1.348      c-1.083-0.191-1.813-1.234-1.623-2.317l1.35-7.648c0.191-1.083,1.233-1.813,2.317-1.622l7.65,1.348      c1.083,0.191,1.813,1.234,1.622,2.317L268.089,323.817z"/>
			</g>
			<g>
				<path fill="#CCCCCC" d="M283.5,326.536c-0.19,1.083-1.233,1.813-2.316,1.622l-7.65-1.35c-1.083-0.191-1.813-1.234-1.623-2.317      l1.349-7.649c0.191-1.083,1.233-1.813,2.317-1.622l7.65,1.349c1.083,0.191,1.813,1.234,1.623,2.317L283.5,326.536z"/>
			</g>
			<g>
				<path fill="#CCCCCC" d="M298.91,329.252c-0.191,1.083-1.234,1.813-2.317,1.622l-7.648-1.348      c-1.083-0.191-1.813-1.234-1.622-2.317l1.35-7.648c0.191-1.083,1.234-1.813,2.317-1.622l7.648,1.348      c1.083,0.191,1.813,1.234,1.622,2.317L298.91,329.252z"/>
			</g>
			<g>
				<path fill="#CCCCCC" d="M314.322,331.969c-0.191,1.083-1.234,1.813-2.317,1.623l-7.649-1.349      c-1.083-0.19-1.813-1.233-1.623-2.316l1.35-7.65c0.19-1.083,1.233-1.813,2.316-1.622l7.649,1.35      c1.083,0.191,1.813,1.234,1.622,2.317L314.322,331.969z"/>
			</g>
			<g>
				<path fill="#CCCCCC" d="M329.733,334.687c-0.191,1.083-1.234,1.813-2.317,1.622l-7.649-1.348      c-1.083-0.191-1.813-1.234-1.622-2.317l1.349-7.648c0.191-1.083,1.234-1.813,2.317-1.622l7.649,1.348      c1.083,0.191,1.813,1.234,1.622,2.317L329.733,334.687z"/>
			</g>
			<g>
				<path fill="#CCCCCC" d="M345.146,337.405c-0.191,1.083-1.234,1.813-2.317,1.622l-7.649-1.348      c-1.083-0.191-1.813-1.234-1.623-2.317l1.35-7.65c0.19-1.083,1.233-1.813,2.316-1.622l7.649,1.349      c1.083,0.191,1.813,1.234,1.622,2.317L345.146,337.405z"/>
			</g>
			<g>
				<path fill="#CCCCCC" d="M360.557,340.122c-0.191,1.083-1.234,1.813-2.317,1.622l-7.648-1.349      c-1.083-0.191-1.813-1.234-1.622-2.317l1.349-7.647c0.191-1.083,1.234-1.813,2.317-1.622l7.648,1.349      c1.083,0.191,1.813,1.234,1.622,2.317L360.557,340.122z"/>
			</g>
			<g>
				<path fill="#CCCCCC" d="M375.969,342.839c-0.191,1.083-1.234,1.813-2.317,1.623l-7.648-1.349      c-1.083-0.19-1.813-1.233-1.623-2.316l1.349-7.648c0.19-1.083,1.233-1.813,2.316-1.623l7.649,1.349      c1.083,0.19,1.813,1.233,1.622,2.316L375.969,342.839z"/>
			</g>
			<g>
				<path fill="#CCCCCC" d="M391.378,345.558c-0.191,1.083-1.234,1.813-2.317,1.622l-7.647-1.348      c-1.083-0.191-1.813-1.234-1.622-2.317l1.348-7.65c0.191-1.083,1.234-1.813,2.317-1.622l7.648,1.349      c1.083,0.191,1.813,1.234,1.622,2.317L391.378,345.558z"/>
			</g>
			<g>
				<path fill="#CCCCCC" d="M189.217,326.079c-0.191,1.083-1.233,1.813-2.317,1.623l-7.648-1.349      c-1.083-0.19-1.813-1.233-1.623-2.316l1.348-7.651c0.191-1.083,1.233-1.813,2.317-1.622l7.649,1.349      c1.083,0.191,1.813,1.234,1.623,2.317L189.217,326.079z"/>
			</g>
			<g>
				<path fill="#CCCCCC" d="M204.555,328.784c-0.191,1.083-1.233,1.813-2.317,1.622l-7.649-1.349      c-1.083-0.191-1.813-1.234-1.623-2.317l1.348-7.649c0.191-1.083,1.233-1.813,2.317-1.622l7.65,1.348      c1.083,0.191,1.813,1.234,1.623,2.317L204.555,328.784z"/>
			</g>
			<g>
				<path fill="#CCCCCC" d="M219.894,331.488c-0.191,1.083-1.233,1.813-2.317,1.622l-7.65-1.349      c-1.083-0.191-1.813-1.234-1.623-2.317l1.35-7.649c0.191-1.083,1.233-1.813,2.317-1.623l7.648,1.349      c1.083,0.19,1.813,1.233,1.623,2.316L219.894,331.488z"/>
			</g>
			<g>
				<path fill="#CCCCCC" d="M235.232,334.192c-0.191,1.083-1.233,1.813-2.317,1.622l-7.65-1.348      c-1.083-0.191-1.813-1.234-1.623-2.317l1.35-7.65c0.191-1.083,1.233-1.813,2.317-1.622l7.648,1.349      c1.083,0.191,1.813,1.234,1.623,2.317L235.232,334.192z"/>
			</g>
			<g>
				<path fill="#CCCCCC" d="M250.57,336.897c-0.191,1.083-1.233,1.813-2.317,1.622l-7.648-1.348      c-1.083-0.191-1.813-1.234-1.623-2.317l1.348-7.651c0.191-1.083,1.233-1.813,2.317-1.622l7.649,1.349      c1.083,0.191,1.813,1.234,1.623,2.317L250.57,336.897z"/>
			</g>
			<g>
				<path fill="#CCCCCC" d="M265.908,339.602c-0.191,1.083-1.233,1.813-2.317,1.622l-7.65-1.349      c-1.083-0.191-1.813-1.234-1.622-2.317l1.349-7.648c0.191-1.083,1.234-1.813,2.317-1.622l7.648,1.348      c1.083,0.191,1.813,1.234,1.623,2.317L265.908,339.602z"/>
			</g>
			<g>
				<path fill="#CCCCCC" d="M281.246,342.307c-0.191,1.083-1.234,1.813-2.317,1.622l-7.649-1.348      c-1.083-0.191-1.813-1.234-1.623-2.317l1.35-7.649c0.191-1.083,1.233-1.813,2.317-1.622l7.648,1.348      c1.083,0.191,1.813,1.234,1.622,2.317L281.246,342.307z"/>
			</g>
			<g>
				<path fill="#CCCCCC" d="M296.585,345.012c-0.191,1.083-1.234,1.813-2.317,1.622l-7.648-1.35      c-1.083-0.191-1.813-1.234-1.622-2.317l1.349-7.648c0.191-1.083,1.234-1.813,2.317-1.622l7.648,1.348      c1.083,0.191,1.813,1.234,1.622,2.317L296.585,345.012z"/>
			</g>
			<g>
				<path fill="#CCCCCC" d="M327.261,350.42c-0.191,1.083-1.234,1.813-2.317,1.622l-22.987-4.052      c-1.083-0.191-1.813-1.234-1.622-2.317l1.349-7.651c0.191-1.083,1.234-1.813,2.317-1.622l22.987,4.053      c1.083,0.191,1.813,1.234,1.622,2.317L327.261,350.42z"/>
			</g>
			<g>
				<path fill="#CCCCCC" d="M342.6,353.124c-0.191,1.083-1.234,1.813-2.317,1.622l-7.65-1.348c-1.083-0.191-1.813-1.234-1.622-2.317      l1.349-7.65c0.191-1.083,1.234-1.813,2.317-1.622l7.649,1.349c1.083,0.191,1.813,1.234,1.622,2.317L342.6,353.124z"/>
			</g>
			<g>
				<path fill="#CCCCCC" d="M357.938,355.829c-0.191,1.083-1.234,1.813-2.317,1.622l-7.648-1.348      c-1.083-0.191-1.813-1.234-1.622-2.317l1.349-7.65c0.191-1.083,1.234-1.813,2.317-1.622l7.648,1.348      c1.083,0.191,1.813,1.234,1.622,2.317L357.938,355.829z"/>
			</g>
			<g>
				<path fill="#CCCCCC" d="M373.277,358.534c-0.191,1.083-1.234,1.813-2.317,1.622l-7.65-1.349      c-1.083-0.191-1.813-1.234-1.622-2.317l1.349-7.649c0.191-1.083,1.234-1.813,2.317-1.622l7.65,1.348      c1.083,0.191,1.813,1.234,1.622,2.317L373.277,358.534z"/>
			</g>
			<g>
				<path fill="#CCCCCC" d="M388.613,361.239c-0.191,1.083-1.234,1.813-2.317,1.622l-7.648-1.349      c-1.083-0.191-1.813-1.234-1.622-2.317l1.349-7.65c0.191-1.083,1.234-1.813,2.317-1.622l7.649,1.349      c1.083,0.191,1.813,1.234,1.622,2.317L388.613,361.239z"/>
			</g>
			<g>
				<path fill="#CCCCCC" d="M197.872,343.772c-0.191,1.083-1.233,1.813-2.317,1.622l-7.65-1.349      c-1.083-0.191-1.813-1.234-1.622-2.317l1.349-7.649c0.191-1.083,1.234-1.813,2.317-1.622l7.65,1.348      c1.083,0.191,1.813,1.234,1.623,2.317L197.872,343.772z"/>
			</g>
			<g>
				<path fill="#CCCCCC" d="M213.379,346.507c-0.191,1.083-1.233,1.813-2.317,1.622l-7.649-1.348      c-1.083-0.191-1.813-1.234-1.623-2.317l1.348-7.651c0.191-1.083,1.233-1.813,2.317-1.622l7.649,1.349      c1.083,0.191,1.813,1.234,1.623,2.317L213.379,346.507z"/>
			</g>
			<g>
				<path fill="#CCCCCC" d="M228.717,349.212c-0.191,1.083-1.233,1.813-2.317,1.622l-7.648-1.349      c-1.083-0.191-1.813-1.234-1.623-2.317l1.348-7.649c0.191-1.083,1.233-1.813,2.317-1.622l7.65,1.348      c1.083,0.191,1.813,1.234,1.623,2.317L228.717,349.212z"/>
			</g>
			<g>
				<path fill="#CCCCCC" d="M244.055,351.915c-0.191,1.083-1.233,1.813-2.317,1.623l-7.648-1.349      c-1.083-0.19-1.813-1.233-1.623-2.316l1.349-7.651c0.191-1.083,1.233-1.813,2.317-1.622l7.648,1.348      c1.083,0.191,1.813,1.234,1.623,2.317L244.055,351.915z"/>
			</g>
			<g>
				<path fill="#CCCCCC" d="M259.394,354.621c-0.191,1.083-1.233,1.813-2.317,1.622l-7.648-1.35      c-1.083-0.191-1.813-1.234-1.623-2.317l1.348-7.65c0.191-1.083,1.233-1.813,2.317-1.622l7.648,1.349      c1.083,0.191,1.813,1.234,1.623,2.317L259.394,354.621z"/>
			</g>
			<g>
				<path fill="#CCCCCC" d="M274.732,357.326c-0.191,1.083-1.233,1.813-2.317,1.622l-7.649-1.349      c-1.083-0.191-1.813-1.234-1.623-2.317l1.349-7.651c0.191-1.083,1.233-1.813,2.317-1.622l7.648,1.349      c1.083,0.191,1.813,1.234,1.623,2.317L274.732,357.326z"/>
			</g>
			<g>
				<path fill="#CCCCCC" d="M290.071,360.03c-0.19,1.083-1.233,1.813-2.316,1.622l-7.65-1.35c-1.083-0.191-1.813-1.234-1.623-2.317      l1.348-7.649c0.191-1.083,1.233-1.813,2.316-1.622l7.65,1.348c1.083,0.191,1.813,1.234,1.623,2.317L290.071,360.03z"/>
			</g>
			<g>
				<path fill="#CCCCCC" d="M339.834,368.806c-0.19,1.083-1.233,1.813-2.316,1.622l-7.649-1.349      c-1.083-0.191-1.813-1.234-1.622-2.317l1.348-7.65c0.191-1.083,1.234-1.813,2.317-1.622l7.649,1.348      c1.083,0.191,1.813,1.234,1.623,2.317L339.834,368.806z"/>
			</g>
			<g>
				<path fill="#CCCCCC" d="M355.172,371.509c-0.19,1.083-1.233,1.813-2.316,1.622l-7.649-1.348      c-1.083-0.191-1.813-1.234-1.622-2.317l1.348-7.651c0.191-1.083,1.234-1.813,2.317-1.622l7.649,1.349      c1.083,0.191,1.813,1.234,1.623,2.317L355.172,371.509z"/>
			</g>
			<g>
				<path fill="#CCCCCC" d="M370.511,374.215c-0.19,1.083-1.233,1.813-2.316,1.622l-7.649-1.348      c-1.083-0.191-1.813-1.234-1.623-2.317l1.35-7.651c0.19-1.083,1.233-1.813,2.316-1.622l7.648,1.348      c1.083,0.191,1.813,1.234,1.623,2.317L370.511,374.215z"/>
			</g>
			<g>
				<path fill="#CCCCCC" d="M202.774,360.804c-0.191,1.083-1.233,1.813-2.317,1.622l-7.648-1.348      c-1.083-0.191-1.813-1.234-1.623-2.317l1.349-7.649c0.191-1.083,1.233-1.813,2.317-1.622l7.649,1.348      c1.083,0.191,1.813,1.234,1.623,2.317L202.774,360.804z"/>
			</g>
			<g>
				<path fill="#CCCCCC" d="M218.114,363.509c-0.191,1.083-1.233,1.813-2.317,1.622l-7.649-1.348      c-1.083-0.191-1.813-1.234-1.623-2.317l1.35-7.651c0.191-1.083,1.233-1.813,2.317-1.622l7.647,1.348      c1.083,0.191,1.813,1.234,1.623,2.317L218.114,363.509z"/>
			</g>
			<g>
				<path fill="#CCCCCC" d="M233.453,366.215c-0.191,1.083-1.233,1.813-2.317,1.622l-7.65-1.349      c-1.083-0.191-1.813-1.234-1.623-2.317l1.348-7.65c0.191-1.083,1.233-1.813,2.317-1.622l7.65,1.348      c1.083,0.191,1.813,1.234,1.623,2.317L233.453,366.215z"/>
			</g>
			<g>
				<path fill="#CCCCCC" d="M248.79,368.918c-0.191,1.083-1.233,1.813-2.317,1.622l-7.65-1.348      c-1.083-0.191-1.813-1.234-1.623-2.317l1.348-7.651c0.191-1.083,1.233-1.813,2.317-1.622l7.65,1.349      c1.083,0.191,1.813,1.234,1.623,2.317L248.79,368.918z"/>
			</g>
			<g>
				<path fill="#CCCCCC" d="M264.128,371.622c-0.191,1.083-1.233,1.813-2.317,1.622l-7.65-1.349      c-1.083-0.191-1.813-1.234-1.623-2.317l1.349-7.648c0.191-1.083,1.233-1.813,2.317-1.622l7.65,1.348      c1.083,0.191,1.813,1.234,1.623,2.317L264.128,371.622z"/>
			</g>
			<g>
				<path fill="#CCCCCC" d="M279.466,374.327c-0.191,1.083-1.233,1.813-2.317,1.622l-7.647-1.348      c-1.083-0.191-1.813-1.234-1.623-2.317l1.349-7.65c0.191-1.083,1.233-1.813,2.317-1.622l7.647,1.349      c1.083,0.191,1.813,1.234,1.622,2.317L279.466,374.327z"/>
			</g>
			<g>
				<path fill="#CCCCCC" d="M294.805,377.032c-0.191,1.083-1.234,1.813-2.317,1.622l-7.648-1.349      c-1.083-0.191-1.813-1.234-1.622-2.317l1.348-7.649c0.191-1.083,1.234-1.813,2.317-1.623l7.648,1.349      c1.083,0.19,1.813,1.233,1.622,2.316L294.805,377.032z"/>
			</g>
			<g>
				<path fill="#CCCCCC" d="M297.485,351.418c-1.083-0.19-2.126,0.54-2.317,1.623l-1.348,7.649      c-0.191,1.083,0.539,2.126,1.622,2.317l3.56,0.627c1.083,0.191,1.813,1.234,1.622,2.317l-2.069,11.74      c-0.191,1.083,0.539,2.126,1.622,2.317l19.238,3.391c1.083,0.191,2.126-0.539,2.317-1.622l4.111-23.33      c0.191-1.083-0.539-2.126-1.622-2.317L297.485,351.418z"/>
			</g>
			<g>
				<path fill="#CCCCCC" d="M337.07,384.484c-0.191,1.083-1.234,1.813-2.317,1.623l-7.65-1.35c-1.083-0.19-1.813-1.233-1.622-2.316      l1.348-7.651c0.191-1.083,1.234-1.813,2.317-1.622l7.65,1.348c1.083,0.191,1.813,1.234,1.622,2.317L337.07,384.484z"/>
			</g>
			<g>
				<path fill="#CCCCCC" d="M352.408,387.188c-0.191,1.083-1.234,1.813-2.317,1.622l-7.649-1.349      c-1.083-0.191-1.813-1.234-1.622-2.317l1.348-7.648c0.191-1.083,1.234-1.813,2.317-1.623l7.649,1.349      c1.083,0.19,1.813,1.233,1.622,2.316L352.408,387.188z"/>
			</g>
			<g>
				<path fill="#CCCCCC" d="M367.746,389.894c-0.19,1.083-1.233,1.813-2.316,1.622l-7.649-1.35      c-1.083-0.191-1.813-1.234-1.622-2.317l1.348-7.649c0.191-1.083,1.234-1.813,2.317-1.622l7.648,1.349      c1.083,0.191,1.813,1.234,1.623,2.317L367.746,389.894z"/>
			</g>
			<g>
				<path fill="#CCCCCC" d="M383.084,392.599c-0.19,1.083-1.233,1.813-2.316,1.622l-7.648-1.349      c-1.083-0.191-1.813-1.234-1.622-2.317l4.113-23.331c0.191-1.083,1.234-1.813,2.317-1.622l7.647,1.348      c1.083,0.191,1.813,1.234,1.622,2.317L383.084,392.599z"/>
			</g>
			<g>
				<path fill="#CCCCCC" d="M182.797,373.449c-0.191,1.083-1.233,1.813-2.317,1.622l-7.649-1.348      c-1.083-0.191-1.813-1.234-1.623-2.317l1.349-7.65c0.191-1.083,1.233-1.813,2.317-1.622l7.65,1.349      c1.083,0.191,1.813,1.234,1.623,2.317L182.797,373.449z"/>
			</g>
			<g>
				<path fill="#CCCCCC" d="M198.136,376.152c-0.191,1.083-1.234,1.813-2.317,1.623l-7.647-1.349      c-1.083-0.19-1.813-1.233-1.623-2.316l1.35-7.65c0.191-1.083,1.233-1.813,2.317-1.622l7.647,1.349      c1.083,0.191,1.813,1.234,1.622,2.317L198.136,376.152z"/>
			</g>
			<g>
				<path fill="#CCCCCC" d="M213.475,378.858c-0.191,1.083-1.233,1.813-2.317,1.622l-7.648-1.348      c-1.083-0.191-1.813-1.234-1.623-2.317l1.348-7.651c0.191-1.083,1.233-1.813,2.317-1.622l7.65,1.349      c1.083,0.191,1.813,1.234,1.622,2.317L213.475,378.858z"/>
			</g>
			<g>
				<path fill="#CCCCCC" d="M228.813,381.563c-0.191,1.083-1.233,1.813-2.317,1.622l-7.648-1.349      c-1.083-0.191-1.813-1.234-1.623-2.317l1.348-7.648c0.191-1.083,1.233-1.813,2.317-1.622l7.65,1.348      c1.083,0.191,1.813,1.234,1.623,2.317L228.813,381.563z"/>
			</g>
			<g>
				<path fill="#CCCCCC" d="M244.151,384.268c-0.191,1.083-1.233,1.813-2.317,1.622l-7.65-1.348      c-1.083-0.191-1.813-1.234-1.623-2.317l1.349-7.651c0.191-1.083,1.233-1.813,2.317-1.622l7.65,1.349      c1.083,0.191,1.813,1.234,1.623,2.317L244.151,384.268z"/>
			</g>
			<g>
				<path fill="#CCCCCC" d="M259.488,386.972c-0.191,1.083-1.233,1.813-2.317,1.622l-7.647-1.349      c-1.083-0.191-1.813-1.234-1.623-2.317l1.349-7.648c0.191-1.083,1.233-1.813,2.317-1.622l7.648,1.348      c1.083,0.191,1.813,1.234,1.623,2.317L259.488,386.972z"/>
			</g>
			<g>
				<path fill="#CCCCCC" d="M275.339,389.767c-0.191,1.083-1.233,1.813-2.317,1.622l-7.65-1.349      c-1.083-0.191-1.813-1.234-1.623-2.317l1.35-7.649c0.191-1.083,1.233-1.813,2.317-1.622l7.65,1.349      c1.083,0.191,1.813,1.234,1.623,2.317L275.339,389.767z"/>
			</g>
			<g>
				<path fill="#CCCCCC" d="M318.967,397.46c-0.191,1.083-1.234,1.813-2.317,1.622l-35.514-6.262      c-1.083-0.191-1.813-1.234-1.623-2.317l1.349-7.649c0.191-1.083,1.234-1.813,2.317-1.622l35.514,6.261      c1.083,0.191,1.813,1.234,1.622,2.317L318.967,397.46z"/>
			</g>
			<g>
				<path fill="#CCCCCC" d="M334.305,400.164c-0.19,1.083-1.233,1.813-2.316,1.622l-7.649-1.349      c-1.083-0.191-1.813-1.234-1.622-2.317l1.348-7.648c0.191-1.083,1.234-1.813,2.317-1.623l7.649,1.349      c1.083,0.19,1.813,1.233,1.623,2.316L334.305,400.164z"/>
			</g>
			<g>
				<path fill="#CCCCCC" d="M349.644,402.868c-0.19,1.083-1.233,1.813-2.316,1.622l-7.65-1.348      c-1.083-0.191-1.813-1.234-1.622-2.317l1.348-7.65c0.191-1.083,1.234-1.813,2.317-1.622l7.649,1.349      c1.083,0.191,1.813,1.234,1.623,2.317L349.644,402.868z"/>
			</g>
			<g>
				<path fill="#CCCCCC" d="M364.982,405.574c-0.191,1.083-1.234,1.813-2.317,1.622l-7.65-1.349      c-1.083-0.191-1.813-1.234-1.622-2.317l1.348-7.651c0.191-1.083,1.234-1.813,2.317-1.622l7.65,1.349      c1.083,0.191,1.813,1.234,1.622,2.317L364.982,405.574z"/>
			</g>
			<g>
				<path fill="#CCCCCC" d="M177.134,388.618c-0.191,1.083-1.233,1.813-2.317,1.622l-7.648-1.348      c-1.083-0.191-1.813-1.234-1.622-2.317l1.35-7.651c0.191-1.083,1.234-1.813,2.317-1.622l7.647,1.348      c1.083,0.191,1.813,1.234,1.623,2.317L177.134,388.618z"/>
			</g>
			<g>
				<path fill="#CCCCCC" d="M175.621,307.514c-0.191,1.083-1.233,1.813-2.317,1.622l-7.649-1.35      c-1.083-0.191-1.813-1.234-1.623-2.317l1.349-7.647c0.191-1.083,1.233-1.813,2.317-1.622l7.65,1.348      c1.083,0.191,1.813,1.234,1.623,2.317L175.621,307.514z"/>
			</g>
			<g>
				<path fill="#CCCCCC" d="M172.856,323.195c-0.191,1.083-1.233,1.813-2.317,1.622l-7.648-1.349      c-1.083-0.191-1.813-1.234-1.623-2.317l1.348-7.65c0.191-1.083,1.233-1.813,2.317-1.622l7.65,1.348      c1.083,0.191,1.813,1.234,1.623,2.317L172.856,323.195z"/>
			</g>
			<g>
				<path fill="#CCCCCC" d="M182.532,341.068c-0.191,1.083-1.234,1.813-2.317,1.622l-20.088-3.542      c-1.083-0.191-1.813-1.234-1.623-2.317l1.349-7.651c0.191-1.083,1.233-1.813,2.317-1.622l20.091,3.543      c1.083,0.191,1.813,1.234,1.622,2.317L182.532,341.068z"/>
			</g>
			<g>
				<path fill="#CCCCCC" d="M187.437,358.1c-0.191,1.083-1.233,1.813-2.317,1.622l-27.759-4.895      c-1.083-0.191-1.813-1.234-1.623-2.317l1.35-7.648c0.191-1.083,1.233-1.813,2.317-1.622l27.758,4.894      c1.083,0.191,1.813,1.234,1.623,2.317L187.437,358.1z"/>
			</g>
			<g>
				<path fill="#CCCCCC" d="M167.033,370.67c-0.191,1.083-1.233,1.813-2.317,1.622l-10.121-1.784      c-1.083-0.191-1.813-1.234-1.623-2.317l1.35-7.65c0.191-1.083,1.233-1.813,2.317-1.622l10.121,1.784      c1.083,0.191,1.813,1.234,1.623,2.317L167.033,370.67z"/>
			</g>
			<g>
				<path fill="#CCCCCC" d="M161.796,385.915c-0.191,1.083-1.233,1.813-2.317,1.622l-7.648-1.351      c-1.083-0.191-1.813-1.234-1.623-2.317l1.35-7.649c0.191-1.083,1.233-1.813,2.317-1.622l7.648,1.349      c1.083,0.191,1.813,1.234,1.623,2.317L161.796,385.915z"/>
			</g>
			<g>
				<path fill="#CCCCCC" d="M252.258,401.865c-0.191,1.083-1.233,1.813-2.317,1.622l-67.436-11.891      c-1.083-0.191-1.813-1.234-1.622-2.317l1.35-7.65c0.191-1.083,1.234-1.813,2.317-1.622l67.433,11.891      c1.083,0.191,1.813,1.234,1.623,2.317L252.258,401.865z"/>
			</g>
			<g>
				<path fill="#CCCCCC" d="M283.48,407.369c-0.191,1.083-1.234,1.813-2.317,1.623l-7.649-1.349      c-1.083-0.19-1.813-1.233-1.623-2.316l1.35-7.651c0.191-1.083,1.233-1.813,2.317-1.622l7.649,1.348      c1.083,0.191,1.813,1.234,1.622,2.317L283.48,407.369z"/>
			</g>
			<g>
				<path fill="#CCCCCC" d="M268.142,404.665c-0.191,1.083-1.233,1.813-2.317,1.622l-7.65-1.348      c-1.083-0.191-1.813-1.234-1.623-2.317l1.35-7.649c0.191-1.083,1.233-1.813,2.317-1.623l7.65,1.349      c1.083,0.19,1.813,1.233,1.623,2.316L268.142,404.665z"/>
			</g>
			<g>
				<path fill="#CCCCCC" d="M309.201,404.521c-0.19,1.083-1.233,1.813-2.316,1.622l-7.651-1.349      c-1.083-0.191-1.813-1.234-1.622-2.317l0.086-0.488c0.191-1.083,1.234-1.813,2.317-1.622l7.648,1.349      c1.083,0.191,1.813,1.234,1.623,2.317L309.201,404.521z"/>
			</g>
			<g>
				<path fill="#CCCCCC" d="M307.938,411.682c-0.19,1.083-1.233,1.813-2.316,1.623l-7.649-1.349      c-1.083-0.19-1.813-1.233-1.623-2.316l0.118-0.667c0.19-1.083,1.233-1.813,2.316-1.622l7.649,1.348      c1.083,0.191,1.813,1.234,1.623,2.317L307.938,411.682z"/>
			</g>
			<g>
				<path fill="#CCCCCC" d="M316.715,413.229c-0.19,1.083-1.233,1.813-2.316,1.623l-2.488-0.439      c-1.083-0.19-1.813-1.233-1.622-2.316l1.349-7.65c0.191-1.083,1.234-1.813,2.317-1.622l2.487,0.438      c1.083,0.191,1.813,1.234,1.623,2.317L316.715,413.229z"/>
			</g>
			<g>
				<path fill="#CCCCCC" d="M293.953,409.216c-0.191,1.083-1.234,1.813-2.317,1.623l-2.486-0.438      c-1.083-0.19-1.813-1.233-1.622-2.316l1.348-7.651c0.191-1.083,1.234-1.813,2.317-1.622l2.487,0.439      c1.083,0.191,1.813,1.234,1.622,2.317L293.953,409.216z"/>
			</g>
			<g>
				<path fill="#CCCCCC" d="M346.879,418.55c-0.191,1.083-1.234,1.813-2.317,1.622l-22.988-4.054      c-1.083-0.191-1.813-1.234-1.622-2.317l1.35-7.651c0.191-1.083,1.234-1.813,2.317-1.622l22.987,4.054      c1.083,0.191,1.813,1.234,1.622,2.317L346.879,418.55z"/>
			</g>
			<g>
				<path fill="#CCCCCC" d="M362.217,421.253c-0.19,1.083-1.233,1.813-2.316,1.622l-7.649-1.348      c-1.083-0.191-1.813-1.234-1.622-2.317l1.349-7.651c0.191-1.083,1.234-1.813,2.317-1.622l7.648,1.348      c1.083,0.191,1.813,1.234,1.623,2.317L362.217,421.253z"/>
			</g>
			<g>
				<path fill="#CCCCCC" d="M377.555,423.958c-0.191,1.083-1.234,1.813-2.317,1.623l-7.648-1.349      c-1.083-0.19-1.813-1.233-1.622-2.316l4.113-23.331c0.191-1.083,1.234-1.813,2.317-1.622l7.648,1.349      c1.083,0.191,1.813,1.234,1.622,2.317L377.555,423.958z"/>
			</g>
		</g>
	</g>
	<g>
		<path fill="#FFFFFF" d="M491.705,448.146c-0.415,3.467-2.047,6.799-4.863,9.298c-2.814,2.499-6.317,3.727-9.809,3.727h-10.961    c-3.489,0-6.992-1.228-9.809-3.727c-2.815-2.499-4.449-5.831-4.861-9.298l-3.399-28.46c-0.227-1.913-0.088-3.902,0.482-5.871    c0.571-1.967,1.52-3.722,2.739-5.215l5.085-6.24c1.345-1.648,3.063-3.035,5.112-4.009c2.051-0.975,4.212-1.429,6.34-1.429h8.02    c2.185,0,4.402,0.479,6.5,1.506c2.096,1.027,3.835,2.485,5.174,4.213l4.677,6.03c1.146,1.477,2.032,3.194,2.563,5.108    c0.531,1.912,0.653,3.842,0.433,5.698L491.705,448.146z"/>
		<line fill="none" stroke="#444849" stroke-miterlimit="10" x1="471.565" y1="399.33" x2="471.565" y2="427.494"/>
		<path fill="#093D5F" d="M475.364,417.913c0,2.007-1.642,3.646-3.646,3.646h-0.304c-2.007,0-3.648-1.64-3.648-3.646v-10.14    c0-2.007,1.642-3.648,3.648-3.648h0.304c2.005,0,3.646,1.642,3.646,3.648V417.913z"/>
	</g>
	<g>
		<circle fill="#027ABB" cx="173.941" cy="222.243" r="40.12"/>
		<path fill="#E2E2E1" d="M152.697,236.412c-3.849-21.821,10.721-42.629,32.542-46.477c4.088-0.72,8.139-0.794,12.048-0.297    c-8.46-6.055-19.254-8.841-30.312-6.891c-21.819,3.848-36.39,24.655-32.543,46.476c3.128,17.735,17.457,30.679,34.429,32.842    C160.625,256.167,154.594,247.175,152.697,236.412z"/>
		<circle fill="#7D7D7D" cx="173.83" cy="222.401" r="30.542"/>
		<circle fill="#FFFFFF" cx="173.83" cy="222.402" r="28.412"/>
		<circle fill="#CB844C" cx="173.831" cy="222.401" r="23.246"/>
		<path fill="#7D7D7D" d="M169.793,199.509c-8.013,1.413-14.333,6.775-17.325,13.73c2.952-2.374,6.525-4.061,10.521-4.766    c12.641-2.229,24.699,6.213,26.929,18.856c0.816,4.63,0.196,9.179-1.533,13.198c6.391-5.142,9.863-13.514,8.338-22.163    C194.494,205.722,182.436,197.28,169.793,199.509z"/>
		<circle fill="#E2E2E1" cx="162.944" cy="218.657" r="3.535"/>
		<circle fill="#E2E2E1" cx="173.236" cy="208.095" r="3.535"/>
		<circle fill="none" stroke="#E2E2E1" stroke-miterlimit="10" cx="181.217" cy="206.163" r="1.867"/>
		<circle fill="none" stroke="#E2E2E1" stroke-miterlimit="10" cx="186.242" cy="208.382" r="1.191"/>
		<circle fill="#E2E2E1" cx="184.265" cy="214.898" r="4.279"/>
		<path fill="#FFFFFF" d="M222.394,215.356c0.108,0.616-0.019,1.275-0.406,1.828c-0.388,0.554-0.962,0.898-1.58,1.007l-20.603,3.633    l-1.368-7.764l20.602-3.633c0.617-0.108,1.275,0.018,1.829,0.405c0.553,0.388,0.897,0.963,1.007,1.58L222.394,215.356z"/>
	</g>
	<g>
		<circle fill="#444849" cx="127.857" cy="351.203" r="1.288"/>
		
			<rect x="131.763" y="364.208" transform="matrix(0.9848 -0.1736 0.1736 0.9848 -67.953 29.9198)" fill="#CCCCCC" width="10.604" height="78.434"/>
		<polygon fill="#FFFFFF" points="129.125,350.979 126.59,351.426 125.034,365.725 135.478,363.883   "/>
		
			<rect x="135.362" y="421.097" transform="matrix(0.9848 -0.1737 0.1737 0.9848 -71.4673 30.8687)" fill="#093D5F" width="10.605" height="5.472"/>
		<path fill="#093D5F" d="M150.764,444.609l-6.269-35.551c-0.16-0.904,0.008-1.868,0.542-2.674c0.533-0.806,1.33-1.303,2.188-1.453    l2.034-0.36l6.302,35.733c0.151,0.859-0.024,1.775-0.565,2.545c-0.538,0.771-1.339,1.25-2.197,1.4L150.764,444.609z"/>
		
			<rect x="138.209" y="437.245" transform="matrix(0.9848 -0.1736 0.1736 0.9848 -74.1914 31.5888)" fill="#093D5F" width="10.605" height="5.472"/>
		
			<rect x="145.875" y="421.351" transform="matrix(0.9848 -0.1737 0.1737 0.9848 -71.2128 31.8944)" fill="#093D5F" width="1.462" height="2.868"/>
		
			<rect x="148.723" y="437.499" transform="matrix(0.9845 -0.1751 0.1751 0.9845 -74.5564 32.955)" fill="#093D5F" width="1.461" height="2.869"/>
		<path fill="#FFFFFF" d="M150.52,456.805c0.15,0.856-0.026,1.773-0.566,2.544c-0.537,0.771-1.339,1.249-2.197,1.401l-1.13,0.199    c-0.858,0.15-1.776-0.026-2.546-0.565s-1.249-1.34-1.4-2.197l-2.613-14.82l7.838-1.382L150.52,456.805z"/>
		
			<rect x="137.081" y="363.743" transform="matrix(0.9848 -0.1737 0.1737 0.9848 -67.918 30.3978)" fill="#E2E2E1" width="5.302" height="79.073"/>
		<path fill="#E2E2E1" d="M154.238,443.612c0.283-0.212,0.544-0.458,0.757-0.763c0.541-0.77,0.716-1.686,0.565-2.545l-6.302-35.733    l-1.848,0.327L154.238,443.612z"/>
	</g>
	<g>
		<circle fill="#7D7D7D" cx="362.626" cy="229.204" r="44.708"/>
		<circle fill="#FFFFFF" cx="360.772" cy="224.526" r="44.708"/>
		<path fill="#FFFFFF" d="M548.017,133.55c0,0,3.675-18.717,1.158-24.279c-2.516-5.561-7.731-9.416-14.312-10.577L240.216,46.74    c-6.577-1.161-12.798,0.68-17.063,5.044c-4.268,4.363-7.218,23.21-7.218,23.21L548.017,133.55z"/>
		<path fill="#093D5F" d="M260.237,206.799c-10.561-1.863-20.153-10.974-22.309-21.192L216.143,82.317    c-1.342-6.365,0.319-12.431,4.561-16.645c4.238-4.217,10.443-5.966,17.021-4.806l294.648,51.954    c6.577,1.159,11.809,4.927,14.351,10.34c2.546,5.409,2.031,11.679-1.407,17.2l-55.8,89.609    c-5.521,8.866-17.649,14.146-28.211,12.283L260.237,206.799z"/>
		<path fill="#027ABB" d="M479.302,227.948c-3.194,5.25-10.762,8.677-16.814,7.61l-201.069-35.453    c-6.052-1.068-11.992-6.874-13.197-12.901l-21.254-106.31c-1.204-6.029,2.763-10.088,8.817-9.02l294.648,51.955    c6.056,1.067,8.393,6.236,5.2,11.49L479.302,227.948z"/>
		<path fill="#7D7D7D" d="M402.071,241.644c1.222-2.953,2.152-6.077,2.73-9.354l-88.059-15.526    c-0.577,3.275-0.771,6.531-0.632,9.724L402.071,241.644z"/>
		<g>
			<polygon fill="#E2E2E1" points="372.089,197.174 264.552,178.214 252.195,116.403 383.554,139.565    "/>
			<polygon fill="#B9B9BA" points="362.245,190.588 271.303,174.554 264.381,131.053 368.926,148.723    "/>
			<polygon fill="#027ABB" points="381.986,147.423 253.859,124.831 252.195,116.403 383.554,139.565    "/>
			<polygon fill="none" stroke="#E2E2E1" stroke-miterlimit="10" points="265.483,124.8 257.322,123.361 256.774,119.121      265.313,120.626    "/>
			<polygon fill="none" stroke="#E2E2E1" stroke-miterlimit="10" points="276.734,126.784 268.574,125.344 268.025,121.104      276.565,122.61    "/>
			<polygon fill="none" stroke="#E2E2E1" stroke-miterlimit="10" points="287.986,128.768 279.825,127.328 279.277,123.089      287.816,124.595    "/>
		</g>
		<path fill="#CCCBCC" d="M530.432,123.828L235.784,71.873c-6.054-1.068-10.021,2.991-8.817,9.02l1.223,6.11l304.206,53.64    l3.237-5.325C538.824,130.064,536.487,124.896,530.432,123.828z"/>
		<path opacity="0.2" fill="#E2E2E1" d="M530.465,123.833L323.15,87.277l98.824,141.136l40.546,7.149    c6.054,1.067,13.619-2.356,16.814-7.608l56.329-92.63C538.86,130.072,536.521,124.9,530.465,123.833z"/>
		<path fill="#CCCBCC" d="M239.997,86.891c0-6.866,5.395-11.481,12.056-10.307s12.059,7.693,12.06,14.559    c-0.001,6.868-5.397,11.482-12.059,10.308S239.994,93.759,239.997,86.891z"/>
		<path fill="#B9B9BA" d="M242.567,87.345c0-5.404,4.246-9.036,9.486-8.111c5.242,0.924,9.488,6.053,9.489,11.457    c-0.001,5.404-4.248,9.034-9.488,8.111C246.813,97.877,242.566,92.749,242.567,87.345z"/>
	</g>
	<g>
		<g>
			
				<rect x="56.415" y="109.402" transform="matrix(0.9848 0.1737 -0.1737 0.9848 33.0919 -9.2263)" fill="#E2E2E1" width="25.717" height="150.201"/>
			
				<rect x="74.846" y="111.014" transform="matrix(0.9848 0.1737 -0.1737 0.9848 33.5247 -10.793)" fill="#E2E2E1" width="7.145" height="150.201"/>
		</g>
		<g>
			<line fill="none" stroke="#FFFFFF" stroke-miterlimit="10" x1="44.905" y1="248.648" x2="55.883" y2="250.584"/>
			<line fill="none" stroke="#FFFFFF" stroke-miterlimit="10" x1="45.657" y1="244.386" x2="51.146" y2="245.355"/>
			<line fill="none" stroke="#FFFFFF" stroke-miterlimit="10" x1="46.409" y1="240.125" x2="51.898" y2="241.091"/>
			<line fill="none" stroke="#FFFFFF" stroke-miterlimit="10" x1="47.16" y1="235.862" x2="52.649" y2="236.83"/>
			<line fill="none" stroke="#FFFFFF" stroke-miterlimit="10" x1="47.912" y1="231.599" x2="58.89" y2="233.535"/>
			<line fill="none" stroke="#FFFFFF" stroke-miterlimit="10" x1="48.572" y1="227.856" x2="54.062" y2="228.824"/>
			<line fill="none" stroke="#FFFFFF" stroke-miterlimit="10" x1="49.323" y1="223.594" x2="54.813" y2="224.562"/>
			<line fill="none" stroke="#FFFFFF" stroke-miterlimit="10" x1="50.075" y1="219.332" x2="55.564" y2="220.299"/>
			<line fill="none" stroke="#FFFFFF" stroke-miterlimit="10" x1="50.826" y1="215.069" x2="61.804" y2="217.006"/>
			<line fill="none" stroke="#FFFFFF" stroke-miterlimit="10" x1="51.486" y1="211.326" x2="56.976" y2="212.294"/>
			<line fill="none" stroke="#FFFFFF" stroke-miterlimit="10" x1="52.238" y1="207.063" x2="57.727" y2="208.033"/>
			<line fill="none" stroke="#FFFFFF" stroke-miterlimit="10" x1="52.989" y1="202.802" x2="58.479" y2="203.769"/>
			<line fill="none" stroke="#FFFFFF" stroke-miterlimit="10" x1="53.741" y1="198.54" x2="64.719" y2="200.475"/>
			<line fill="none" stroke="#FFFFFF" stroke-miterlimit="10" x1="54.401" y1="194.797" x2="59.891" y2="195.764"/>
			<line fill="none" stroke="#FFFFFF" stroke-miterlimit="10" x1="55.153" y1="190.535" x2="60.642" y2="191.502"/>
			<line fill="none" stroke="#FFFFFF" stroke-miterlimit="10" x1="55.904" y1="186.272" x2="61.393" y2="187.24"/>
			<line fill="none" stroke="#FFFFFF" stroke-miterlimit="10" x1="56.656" y1="182.009" x2="67.633" y2="183.945"/>
			<line fill="none" stroke="#FFFFFF" stroke-miterlimit="10" x1="57.315" y1="178.267" x2="62.805" y2="179.234"/>
			<line fill="none" stroke="#FFFFFF" stroke-miterlimit="10" x1="58.067" y1="174.004" x2="63.557" y2="174.972"/>
			<line fill="none" stroke="#FFFFFF" stroke-miterlimit="10" x1="58.818" y1="169.742" x2="64.308" y2="170.711"/>
			<line fill="none" stroke="#FFFFFF" stroke-miterlimit="10" x1="59.57" y1="165.48" x2="70.548" y2="167.416"/>
			<line fill="none" stroke="#FFFFFF" stroke-miterlimit="10" x1="60.23" y1="161.736" x2="65.72" y2="162.706"/>
			<line fill="none" stroke="#FFFFFF" stroke-miterlimit="10" x1="60.982" y1="157.475" x2="66.471" y2="158.441"/>
			<line fill="none" stroke="#FFFFFF" stroke-miterlimit="10" x1="61.733" y1="153.212" x2="67.223" y2="154.18"/>
			<line fill="none" stroke="#FFFFFF" stroke-miterlimit="10" x1="62.485" y1="148.95" x2="73.463" y2="150.885"/>
			<line fill="none" stroke="#FFFFFF" stroke-miterlimit="10" x1="63.145" y1="145.208" x2="68.634" y2="146.175"/>
			<line fill="none" stroke="#FFFFFF" stroke-miterlimit="10" x1="63.896" y1="140.945" x2="69.386" y2="141.913"/>
			<line fill="none" stroke="#FFFFFF" stroke-miterlimit="10" x1="64.648" y1="136.682" x2="70.138" y2="137.65"/>
			<line fill="none" stroke="#FFFFFF" stroke-miterlimit="10" x1="65.399" y1="132.419" x2="76.377" y2="134.356"/>
			<line fill="none" stroke="#FFFFFF" stroke-miterlimit="10" x1="66.06" y1="128.677" x2="71.549" y2="129.645"/>
			<line fill="none" stroke="#FFFFFF" stroke-miterlimit="10" x1="66.811" y1="124.415" x2="72.3" y2="125.383"/>
			<line fill="none" stroke="#FFFFFF" stroke-miterlimit="10" x1="67.563" y1="120.153" x2="73.052" y2="121.12"/>
			<line fill="none" stroke="#FFFFFF" stroke-miterlimit="10" x1="68.314" y1="115.891" x2="79.292" y2="117.826"/>
		</g>
	</g>
	<polygon fill="#7D7D7D" points="94.215,117.143 68.894,260.746 48.108,257.082 47.348,261.396 72.674,265.862 98.755,117.943  "/>
</g>
</svg>